<svg width="22" height="23" viewBox="0 0 22 23" fill="none" xmlns="http://www.w3.org/2000/svg">
<path d="M11.0013 15.0058C12.8423 15.0058 14.3346 13.4427 14.3346 11.5145C14.3346 9.58636 12.8423 8.02327 11.0013 8.02327C9.16035 8.02327 7.66797 9.58636 7.66797 11.5145C7.66797 13.4427 9.16035 15.0058 11.0013 15.0058Z" stroke="#6C6B75" stroke-width="2" stroke-linecap="round" stroke-linejoin="round"/>
<path d="M11 21.9883V22M1 8.02333V8.03497M21 8.02333V8.03497M6.55556 20.941C5.03927 20.1664 3.73473 19.0025 2.76337 17.5579C1.79201 16.1132 1.1854 14.4346 1 12.6783M15.4444 20.941C16.9607 20.1664 18.2653 19.0025 19.2366 17.5579C20.208 16.1132 20.8146 14.4346 21 12.6783M4.55556 3.36832C6.34232 1.83677 8.58004 0.999985 10.8889 0.999985C13.1977 0.999985 15.4355 1.83677 17.2222 3.36832" stroke="#6C6B75" stroke-width="2" stroke-linecap="round" stroke-linejoin="round"/>
</svg>
