<svg width="35" height="35" viewBox="0 0 35 35" fill="none" xmlns="http://www.w3.org/2000/svg">
<rect width="35" height="35" rx="5" fill="#AFFFCF" fill-opacity="0.2"/>
<path fill-rule="evenodd" clip-rule="evenodd" d="M24.9403 13.9476C25.3673 13.9828 25.6857 14.356 25.6516 14.783C25.6454 14.8533 25.085 21.7919 24.7624 24.7024C24.5619 26.5086 23.3687 27.6077 21.5676 27.6408C20.1894 27.6645 18.8598 27.678 17.5602 27.678C16.1592 27.678 14.7934 27.6625 13.4421 27.6346C11.7134 27.6004 10.5172 26.4797 10.3218 24.7096C9.99608 21.7733 9.4388 14.8523 9.43363 14.783C9.39847 14.356 9.71692 13.9817 10.1439 13.9476C10.5647 13.9362 10.9452 14.2319 10.9793 14.6579C10.9826 14.7028 11.2105 17.5291 11.4587 20.3255L11.5086 20.8836C11.6336 22.2735 11.7604 23.6092 11.8633 24.539C11.974 25.545 12.5168 26.064 13.4742 26.0837C16.059 26.1385 18.6965 26.1416 21.5397 26.0899C22.5571 26.0702 23.1071 25.5616 23.2209 24.5318C23.5414 21.643 24.0997 14.7282 24.1059 14.6579C24.14 14.2319 24.5174 13.9342 24.9403 13.9476ZM19.7302 7C20.6793 7 21.5137 7.63999 21.7587 8.55708L22.0213 9.86084C22.1062 10.2882 22.4813 10.6004 22.9155 10.6072L26.3086 10.6073C26.7366 10.6073 27.084 10.9547 27.084 11.3828C27.084 11.8108 26.7366 12.1582 26.3086 12.1582L22.9458 12.158C22.9406 12.1581 22.9354 12.1582 22.9301 12.1582L22.9049 12.1572L12.1787 12.1581C12.1704 12.1582 12.162 12.1582 12.1536 12.1582L12.1377 12.1572L8.77544 12.1582C8.3474 12.1582 8 11.8108 8 11.3828C8 10.9547 8.3474 10.6073 8.77544 10.6073L12.1677 10.6063L12.2722 10.5997C12.6612 10.5492 12.9845 10.2537 13.0635 9.86084L13.3147 8.6036C13.5701 7.63999 14.4045 7 15.3536 7H19.7302ZM19.7302 8.55087H15.3536C15.1055 8.55087 14.8873 8.71733 14.8243 8.95617L14.5833 10.1658C14.5527 10.3191 14.5081 10.4667 14.4511 10.6076H20.633C20.5759 10.4667 20.5312 10.3191 20.5004 10.1658L20.2492 8.90861C20.1965 8.71733 19.9783 8.55087 19.7302 8.55087Z" fill="#66B127"/>
</svg>
