<svg width="35" height="35" viewBox="0 0 35 35" fill="none" xmlns="http://www.w3.org/2000/svg">
<rect width="35" height="35" rx="5" fill="#AFFFCF" fill-opacity="0.2"/>
<path fill-rule="evenodd" clip-rule="evenodd" d="M26.278 24.5129C26.6816 24.5129 27.0091 24.8504 27.0091 25.2661C27.0091 25.6818 26.6816 26.0193 26.278 26.0193H19.2078C18.8042 26.0193 18.4767 25.6818 18.4767 25.2661C18.4767 24.8504 18.8042 24.5129 19.2078 24.5129H26.278ZM21.7606 7.65639C21.8093 7.69556 23.4402 9.00103 23.4402 9.00103C24.0329 9.36455 24.4959 10.0143 24.6714 10.7835C24.8458 11.5447 24.7191 12.33 24.3126 12.9938C24.3099 12.9982 24.3072 13.0026 24.2978 13.0156L24.2905 13.0256C24.2245 13.1152 23.9377 13.4888 22.49 15.3573C22.4766 15.3817 22.4613 15.4047 22.4447 15.427C22.4203 15.4598 22.3937 15.49 22.3654 15.5175C22.2666 15.6456 22.1623 15.7801 22.0527 15.9216L21.8305 16.2083C21.3721 16.7998 20.8283 17.5011 20.1832 18.333L19.8521 18.7599C18.6066 20.3658 17.0115 22.4219 14.9682 25.0553C14.5207 25.6297 13.8501 25.9641 13.1297 25.9732L9.58237 26.0194H9.57263C9.23437 26.0194 8.93998 25.7804 8.86102 25.4399L8.06265 21.9543C7.89791 21.2323 8.06168 20.4872 8.51106 19.9087L17.6937 8.07716C17.6976 8.07314 17.7005 8.06812 17.7044 8.0641C18.7114 6.8239 20.5323 6.64114 21.7606 7.65639ZM16.6699 11.8071L9.65256 20.8497C9.48587 21.0646 9.42446 21.3417 9.48587 21.6079L10.1497 24.505L13.1121 24.4668C13.3939 24.4638 13.6541 24.3343 13.8267 24.1134C14.7152 22.9682 15.8319 21.5288 16.98 20.0487L17.3862 19.5251L17.7931 19.0005C18.8699 17.6124 19.9336 16.2408 20.8237 15.0928L16.6699 11.8071ZM18.8303 9.02513L17.5833 10.6302L21.7367 13.9149C22.5362 12.8834 23.0621 12.2039 23.1107 12.1392C23.2706 11.8721 23.333 11.4945 23.2491 11.131C23.1633 10.7584 22.9382 10.4421 22.6135 10.2402C22.5443 10.191 20.9018 8.87751 20.8511 8.83634C20.2331 8.3262 19.3314 8.41457 18.8303 9.02513Z" fill="#66B127"/>
</svg>
