<svg width="181" height="43" viewBox="0 0 181 43" fill="none" xmlns="http://www.w3.org/2000/svg">
<g clip-path="url(#clip0_243_1455)">
<path d="M37.2271 28.9382C37.1896 26.5722 37.6847 24.2288 38.6743 22.0881C39.5587 20.1336 40.9832 18.4843 42.7734 17.342C44.5637 16.1997 46.642 15.6141 48.7539 15.6567C50.3311 15.6019 51.9006 15.9049 53.3488 16.5439C54.7969 17.1829 56.0876 18.1419 57.1273 19.3514C59.2671 21.8146 60.3352 25.0752 60.3314 29.1333V29.7414C60.3707 32.1187 59.8757 34.4736 58.8842 36.626C58.0072 38.5704 56.5897 40.21 54.8073 41.342C53.0041 42.4733 50.9221 43.0583 48.8046 43.0287C47.2298 43.0817 45.663 42.7783 44.2171 42.1404C42.7712 41.5026 41.482 40.546 40.4424 39.3397C38.2989 36.8804 37.2271 33.6178 37.2271 29.5521V28.9382ZM40.0989 29.7414C40.0989 32.8969 40.9004 35.4843 42.5034 37.5038C43.2661 38.4523 44.2259 39.2164 45.3137 39.7412C46.4014 40.2659 47.5898 40.5381 48.7933 40.5381C49.9968 40.5381 51.1853 40.2659 52.273 39.7412C53.3607 39.2164 54.3206 38.4523 55.0833 37.5038C56.69 35.4843 57.4915 32.807 57.4877 29.4718V28.8981C57.5012 26.994 57.1173 25.1089 56.3615 23.3674C55.7158 21.815 54.6567 20.4775 53.3038 19.5063C51.9612 18.5837 50.3731 18.1031 48.7539 18.1294C47.5478 18.1078 46.3538 18.3773 45.2694 18.9157C44.1851 19.4541 43.2411 20.2463 42.5147 21.2275C40.9042 23.2699 40.0989 25.9472 40.0989 29.2595V29.7414Z" fill="#EBEBEB"/>
<path d="M68.4796 16.1444L68.5754 20.6538C69.4594 19.1207 70.7111 17.8415 72.2131 16.9361C73.6746 16.0785 75.3355 15.6366 77.022 15.6567C79.7925 15.6567 81.8572 16.4523 83.2162 18.0434C84.5752 19.6345 85.2603 22.0231 85.2715 25.2091V42.5124H82.4278V25.1861C82.4278 22.8282 81.921 21.0783 80.9525 19.9194C79.9839 18.7605 78.4467 18.1983 76.3237 18.1983C74.6109 18.1774 72.9464 18.7772 71.6274 19.8907C70.2109 21.0971 69.1602 22.6889 68.5979 24.4805V42.5124H65.7823V16.1214L68.4796 16.1444Z" fill="#EBEBEB"/>
<path d="M130.895 9.39172V16.1444H136.272V18.531H130.917V36.1441C130.917 37.6128 131.176 38.7029 131.694 39.4143C132.212 40.1314 133.074 40.4929 134.29 40.4929C135.068 40.4607 135.843 40.3783 136.61 40.2462L136.728 42.6156C135.736 42.9209 134.701 43.0585 133.665 43.0229C131.705 43.0229 130.286 42.4492 129.385 41.3018C128.485 40.1544 128.045 38.4332 128.045 36.1384V18.531H123.281V16.1444H128.045V9.39172H130.895Z" fill="#EBEBEB"/>
<path d="M107.903 25.3468H113.444C112.895 23.4168 111.766 21.7106 110.216 20.468C108.666 19.2253 106.773 18.5086 104.802 18.4185C102.832 18.3285 100.884 18.8696 99.2307 19.9659C97.5778 21.0622 96.3035 22.6585 95.5868 24.5306C94.8702 26.4027 94.7473 28.4566 95.2353 30.4035C95.7233 32.3505 96.7977 34.0928 98.3077 35.3856C99.8176 36.6784 101.687 37.4568 103.654 37.6113C105.62 37.7659 107.585 37.2889 109.271 36.2474C109.666 36.0109 110.042 35.7443 110.398 35.4499L110.764 35.1286L110.831 35.0655C111.165 34.7449 111.564 34.5039 112 34.36C112.437 34.2161 112.899 34.173 113.354 34.2336C113.75 34.2785 114.132 34.4111 114.472 34.6222C114.813 34.8333 115.104 35.1178 115.325 35.4556C115.593 35.8594 115.716 36.3446 115.675 36.8301C115.634 37.3157 115.431 37.7722 115.099 38.1234C114.444 38.8529 113.721 39.5176 112.943 40.1085L112.537 40.4011C110.65 41.7062 108.489 42.544 106.227 42.8475C103.966 43.1511 101.666 42.912 99.511 42.1493C97.3561 41.3866 95.406 40.1215 93.8162 38.4548C92.2263 36.7881 91.0407 34.766 90.3539 32.5497C89.6671 30.3334 89.4981 27.9842 89.8604 25.6896C90.2227 23.3949 91.1063 21.2183 92.4406 19.3333C93.775 17.4482 95.5232 15.9069 97.5459 14.8323C99.5686 13.7577 101.81 13.1795 104.091 13.1438C106.028 13.1142 107.953 13.4759 109.753 14.2078C111.552 14.9397 113.192 16.0275 114.578 17.4084C115.963 18.7892 117.066 20.4359 117.823 22.2533C118.581 24.0707 118.977 26.0229 118.991 27.9973C118.996 28.9718 118.905 29.9443 118.72 30.9003H107.751C107.167 31.6142 106.379 32.1249 105.497 32.3615C104.615 32.598 103.683 32.5486 102.83 32.2201C101.977 31.8916 101.245 31.3003 100.738 30.5286C100.23 29.7569 99.9703 28.843 99.9959 27.9142C100.021 26.9854 100.331 26.0878 100.88 25.3462C101.43 24.6047 102.192 24.0561 103.062 23.7769C103.932 23.4976 104.866 23.5015 105.733 23.788C106.601 24.0745 107.359 24.6294 107.903 25.3755V25.3468Z" fill="url(#paint0_linear_243_1455)"/>
<path d="M3.24914 19.4203C5.04359 19.4203 6.49827 17.9382 6.49827 16.11C6.49827 14.2817 5.04359 12.7996 3.24914 12.7996C1.45469 12.7996 0 14.2817 0 16.11C0 17.9382 1.45469 19.4203 3.24914 19.4203Z" fill="#EBEBEB"/>
<path d="M15.9923 28.026C17.7867 28.026 19.2414 26.5439 19.2414 24.7157C19.2414 22.8874 17.7867 21.4053 15.9923 21.4053C14.1979 21.4053 12.7432 22.8874 12.7432 24.7157C12.7432 26.5439 14.1979 28.026 15.9923 28.026Z" fill="#EBEBEB"/>
<path d="M28.8762 7.0108L16.9834 16.3509C16.714 16.5654 16.382 16.6819 16.0402 16.6819C15.6983 16.6819 15.3663 16.5654 15.097 16.3509L3.19849 7.0108" stroke="#EBEBEB" stroke-width="3" stroke-miterlimit="10"/>
<path d="M0.78833 17.55H5.70427V40.9576C5.69835 41.3568 5.53853 41.7377 5.25932 42.0178C4.98011 42.298 4.60392 42.455 4.21203 42.455H2.2862C1.89333 42.4565 1.51571 42.3002 1.23528 42.0199C0.95486 41.7395 0.794257 41.3578 0.78833 40.9576V17.55Z" fill="#EBEBEB"/>
<path d="M29.4449 19.4203C31.2394 19.4203 32.6941 17.9382 32.6941 16.11C32.6941 14.2817 31.2394 12.7996 29.4449 12.7996C27.6505 12.7996 26.1958 14.2817 26.1958 16.11C26.1958 17.9382 27.6505 19.4203 29.4449 19.4203Z" fill="#EBEBEB"/>
<path d="M26.9841 17.55H31.9001V40.9576C31.8942 41.3568 31.7343 41.7377 31.4551 42.0178C31.1759 42.298 30.7997 42.455 30.4078 42.455H28.482C28.286 42.455 28.092 42.4157 27.9109 42.3393C27.7299 42.2629 27.5654 42.1509 27.4268 42.0097C27.2883 41.8685 27.1783 41.7009 27.1034 41.5165C27.0284 41.332 26.9898 41.1343 26.9898 40.9346V17.55H26.9841Z" fill="#EBEBEB"/>
<path d="M13.5146 26.5917H18.4306V40.9346C18.4306 41.3349 18.2757 41.719 17.9995 42.0036C17.7233 42.2883 17.3481 42.4504 16.9552 42.455H15.0294C14.8334 42.458 14.6388 42.4217 14.4566 42.3481C14.2744 42.2745 14.1083 42.165 13.9676 42.026C13.8269 41.8869 13.7145 41.721 13.6368 41.5377C13.5591 41.3544 13.5176 41.1572 13.5146 40.9576V26.6147V26.5917Z" fill="#EBEBEB"/>
<path d="M157.237 32.8567L161.871 41.0608H167.981L158.797 25.8459C157.884 27.3337 156.983 28.9344 156.094 30.6479C156.398 31.2904 156.809 32.0822 157.237 32.8567Z" fill="#EBEBEB"/>
<path d="M153.441 18.0434L149.353 10.5851H143.159L150.845 23.5224C151.899 22.1397 153.013 20.7685 154.179 19.449C153.948 18.9785 153.695 18.5081 153.441 18.0434Z" fill="#EBEBEB"/>
<path d="M181 0C181 0 156.674 17.0394 149.86 42.6787H140.608C140.608 42.6787 156.674 9.42041 181 0Z" fill="#EBEBEB"/>
<path d="M3.67145 10.4531C5.14558 10.4531 6.34059 9.23559 6.34059 7.7337C6.34059 6.2318 5.14558 5.01428 3.67145 5.01428C2.19733 5.01428 1.00232 6.2318 1.00232 7.7337C1.00232 9.23559 2.19733 10.4531 3.67145 10.4531Z" fill="#EBEBEB"/>
<path d="M29.4449 10.4531C30.919 10.4531 32.114 9.23559 32.114 7.7337C32.114 6.2318 30.919 5.01428 29.4449 5.01428C27.9708 5.01428 26.7758 6.2318 26.7758 7.7337C26.7758 9.23559 27.9708 10.4531 29.4449 10.4531Z" fill="#EBEBEB"/>
</g>
<defs>
<linearGradient id="paint0_linear_243_1455" x1="89.7483" y1="28.0145" x2="118.996" y2="28.0145" gradientUnits="userSpaceOnUse">
<stop stop-color="#70B544"/>
<stop offset="0.24" stop-color="#6AB244"/>
<stop offset="0.56" stop-color="#59AB45"/>
<stop offset="0.92" stop-color="#3E9E47"/>
<stop offset="1" stop-color="#379B47"/>
</linearGradient>
<clipPath id="clip0_243_1455">
<rect width="181" height="43" fill="white"/>
</clipPath>
</defs>
</svg>
