<svg width="64" height="40" viewBox="0 0 64 40" fill="none" xmlns="http://www.w3.org/2000/svg">
<path fill-rule="evenodd" clip-rule="evenodd" d="M35.0938 17C35.0938 18.0609 34.6723 19.0783 33.9222 19.8284C33.172 20.5786 32.1546 21 31.0938 21C30.0329 21 29.0155 20.5786 28.2653 19.8284C27.5152 19.0783 27.0938 18.0609 27.0938 17C27.0938 15.9391 27.5152 14.9217 28.2653 14.1716C29.0155 13.4214 30.0329 13 31.0938 13C32.1546 13 33.172 13.4214 33.9222 14.1716C34.6723 14.9217 35.0938 15.9391 35.0938 17ZM33.0938 17C33.0938 17.5304 32.883 18.0391 32.508 18.4142C32.1329 18.7893 31.6242 19 31.0938 19C30.5633 19 30.0546 18.7893 29.6795 18.4142C29.3045 18.0391 29.0938 17.5304 29.0938 17C29.0938 16.4696 29.3045 15.9609 29.6795 15.5858C30.0546 15.2107 30.5633 15 31.0938 15C31.6242 15 32.1329 15.2107 32.508 15.5858C32.883 15.9609 33.0938 16.4696 33.0938 17Z" fill="#BEBEBE"/>
<path fill-rule="evenodd" clip-rule="evenodd" d="M31.0938 9C25.0188 9 20.0938 13.925 20.0938 20C20.0938 26.075 25.0188 31 31.0938 31C37.1688 31 42.0938 26.075 42.0938 20C42.0938 13.925 37.1688 9 31.0938 9ZM22.0938 20C22.0938 22.09 22.8067 24.014 24.0017 25.542C24.841 24.4399 25.9236 23.5467 27.1652 22.9323C28.4067 22.3179 29.7735 21.9988 31.1587 22C32.5261 21.9987 33.8757 22.3095 35.1047 22.9088C36.3337 23.508 37.4097 24.3799 38.2507 25.458C39.1172 24.3216 39.7006 22.9952 39.9526 21.5886C40.2047 20.182 40.1182 18.7355 39.7002 17.369C39.2823 16.0024 38.545 14.755 37.5492 13.73C36.5535 12.705 35.328 11.9319 33.9741 11.4745C32.6203 11.0172 31.1769 10.8888 29.7636 11.1C28.3503 11.3112 27.0075 11.8559 25.8465 12.6891C24.6855 13.5222 23.7396 14.6199 23.087 15.8912C22.4344 17.1625 22.0939 18.571 22.0938 20ZM31.0938 29C29.0277 29.0031 27.024 28.2923 25.4218 26.988C26.0667 26.0647 26.9251 25.3109 27.9239 24.7907C28.9228 24.2705 30.0325 23.9992 31.1587 24C32.2709 23.9991 33.3672 24.2636 34.3567 24.7714C35.3461 25.2793 36.2001 26.0159 36.8477 26.92C35.233 28.2667 33.1963 29.0029 31.0938 29Z" fill="#8E8E8E"/>
</svg>
