<svg width="64" height="40" viewBox="0 0 64 40" fill="none" xmlns="http://www.w3.org/2000/svg">
<mask id="path-1-inside-1_3552_229497" fill="white">
<path d="M0.09375 0H63.0938V40H0.09375V0Z"/>
</mask>
<path d="M0.09375 0H63.0938V40H0.09375V0Z" fill="#409F47" fill-opacity="0.1"/>
<path d="M3.09375 0C3.09375 -1.65685 1.7506 -3 0.09375 -3C-1.5631 -3 -2.90625 -1.65685 -2.90625 0H3.09375ZM-2.90625 40C-2.90625 41.6569 -1.5631 43 0.09375 43C1.7506 43 3.09375 41.6569 3.09375 40H-2.90625ZM3.09375 40V0H-2.90625V40H3.09375Z" fill="#409F47" mask="url(#path-1-inside-1_3552_229497)"/>
<path fill-rule="evenodd" clip-rule="evenodd" d="M35.5938 17C35.5938 18.0609 35.1723 19.0783 34.4222 19.8284C33.672 20.5786 32.6546 21 31.5938 21C30.5329 21 29.5155 20.5786 28.7653 19.8284C28.0152 19.0783 27.5938 18.0609 27.5938 17C27.5938 15.9391 28.0152 14.9217 28.7653 14.1716C29.5155 13.4214 30.5329 13 31.5938 13C32.6546 13 33.672 13.4214 34.4222 14.1716C35.1723 14.9217 35.5938 15.9391 35.5938 17ZM33.5938 17C33.5938 17.5304 33.383 18.0391 33.008 18.4142C32.6329 18.7893 32.1242 19 31.5938 19C31.0633 19 30.5546 18.7893 30.1795 18.4142C29.8045 18.0391 29.5938 17.5304 29.5938 17C29.5938 16.4696 29.8045 15.9609 30.1795 15.5858C30.5546 15.2107 31.0633 15 31.5938 15C32.1242 15 32.6329 15.2107 33.008 15.5858C33.383 15.9609 33.5938 16.4696 33.5938 17Z" fill="#66B127"/>
<path fill-rule="evenodd" clip-rule="evenodd" d="M31.5938 9C25.5188 9 20.5938 13.925 20.5938 20C20.5938 26.075 25.5188 31 31.5938 31C37.6688 31 42.5938 26.075 42.5938 20C42.5938 13.925 37.6688 9 31.5938 9ZM22.5938 20C22.5938 22.09 23.3067 24.014 24.5017 25.542C25.341 24.4399 26.4236 23.5467 27.6652 22.9323C28.9067 22.3179 30.2735 21.9988 31.6587 22C33.0261 21.9987 34.3757 22.3095 35.6047 22.9088C36.8337 23.508 37.9097 24.3799 38.7507 25.458C39.6172 24.3216 40.2006 22.9952 40.4526 21.5886C40.7047 20.182 40.6182 18.7355 40.2002 17.369C39.7823 16.0024 39.045 14.755 38.0492 13.73C37.0535 12.705 35.828 11.9319 34.4741 11.4745C33.1203 11.0172 31.6769 10.8888 30.2636 11.1C28.8503 11.3112 27.5075 11.8559 26.3465 12.6891C25.1855 13.5222 24.2396 14.6199 23.587 15.8912C22.9344 17.1625 22.5939 18.571 22.5938 20ZM31.5938 29C29.5277 29.0031 27.524 28.2923 25.9218 26.988C26.5667 26.0647 27.4251 25.3109 28.4239 24.7907C29.4228 24.2705 30.5325 23.9992 31.6587 24C32.7709 23.9991 33.8672 24.2636 34.8567 24.7714C35.8461 25.2793 36.7001 26.0159 37.3477 26.92C35.733 28.2667 33.6963 29.0029 31.5938 29Z" fill="#3D9E47"/>
</svg>
