<svg width="64" height="40" viewBox="0 0 64 40" fill="none" xmlns="http://www.w3.org/2000/svg">
<path d="M39.0898 9.704C40.8938 9.704 42.3898 11.2 42.3898 13.004C42.3898 14.819 40.8938 16.304 39.0898 16.304C37.2748 16.304 35.7898 14.819 35.7898 13.004C35.7898 12.674 36.0565 12.1631 36.1555 11.8771C34.9785 11.3161 32.9612 10.8617 31.5862 10.8617C29.2523 10.8617 27.1442 11.7498 25.4939 13.4002C23.8436 15.0505 22.9165 17.6705 22.9165 20.0044L22.9605 20.9284L21.1487 21.155L21.0938 20C21.0938 17.0826 22.2527 14.2847 24.3156 12.2218C26.3785 10.1589 29.1764 9 32.0938 9C33.9528 9 35.7018 9.462 37.2308 10.276C37.7698 9.913 38.4078 9.704 39.0898 9.704ZM25.0978 23.696C26.9128 23.696 28.3978 25.181 28.3978 26.996C28.3978 27.326 28.1314 27.8372 28.0324 28.1232C29.2094 28.6842 30.7188 29.1386 32.0938 29.1386C34.4277 29.1386 36.666 28.2115 38.3163 26.5612C39.9666 24.9108 41.2324 22.3339 41.2324 20L41.1884 19.076L43.0388 18.845L43.0938 20C43.0938 22.9174 41.9348 25.7153 39.8719 27.7782C37.809 29.8411 35.0111 31 32.0938 31C30.2348 31 28.4857 30.538 26.9567 29.724C26.4177 30.087 25.7797 30.296 25.0978 30.296C23.2938 30.296 21.7978 28.8 21.7978 26.996C21.7978 25.181 23.2938 23.696 25.0978 23.696Z" fill="#AEAEAE"/>
<circle cx="32.5938" cy="19.5" r="3.5" fill="#D7D7D7"/>
</svg>
