<svg width="64" height="40" viewBox="0 0 64 40" fill="none" xmlns="http://www.w3.org/2000/svg">
<mask id="path-1-inside-1_1234_5985" fill="white">
<path d="M0.09375 0H63.0938V40H0.09375V0Z"/>
</mask>
<path d="M0.09375 0H63.0938V40H0.09375V0Z" fill="#409F47" fill-opacity="0.14"/>
<path d="M38.5898 9.704C40.3938 9.704 41.8898 11.2 41.8898 13.004C41.8898 14.819 40.3938 16.304 38.5898 16.304C36.7748 16.304 35.2898 14.819 35.2898 13.004C35.2898 12.674 35.5565 12.1631 35.6555 11.8771C34.4785 11.3161 32.4612 10.8617 31.0862 10.8617C28.7523 10.8617 26.6442 11.7498 24.9939 13.4002C23.3436 15.0505 22.4165 17.6705 22.4165 20.0044L22.4605 20.9284L20.6487 21.155L20.5938 20C20.5938 17.0826 21.7527 14.2847 23.8156 12.2218C25.8785 10.1589 28.6764 9 31.5938 9C33.4528 9 35.2018 9.462 36.7308 10.276C37.2698 9.913 37.9078 9.704 38.5898 9.704ZM24.5978 23.696C26.4128 23.696 27.8978 25.181 27.8978 26.996C27.8978 27.326 27.6314 27.8372 27.5324 28.1232C28.7094 28.6842 30.2188 29.1386 31.5938 29.1386C33.9277 29.1386 36.166 28.2115 37.8163 26.5612C39.4666 24.9108 40.7324 22.3339 40.7324 20L40.6884 19.076L42.5388 18.845L42.5938 20C42.5938 22.9174 41.4348 25.7153 39.3719 27.7782C37.309 29.8411 34.5111 31 31.5938 31C29.7348 31 27.9857 30.538 26.4567 29.724C25.9177 30.087 25.2797 30.296 24.5978 30.296C22.7938 30.296 21.2978 28.8 21.2978 26.996C21.2978 25.181 22.7938 23.696 24.5978 23.696Z" fill="#409F47"/>
<circle cx="32.0938" cy="19.5" r="3.5" fill="#71B626"/>
<path d="M3.09375 0C3.09375 -1.65685 1.7506 -3 0.09375 -3C-1.5631 -3 -2.90625 -1.65685 -2.90625 0H3.09375ZM-2.90625 40C-2.90625 41.6569 -1.5631 43 0.09375 43C1.7506 43 3.09375 41.6569 3.09375 40H-2.90625ZM3.09375 40V0H-2.90625V40H3.09375Z" fill="#409F47" mask="url(#path-1-inside-1_1234_5985)"/>
</svg>
