<svg width="64" height="40" viewBox="0 0 64 40" fill="none" xmlns="http://www.w3.org/2000/svg">
<path d="M23.5938 25.9304C23.0438 25.9304 22.5731 25.7226 22.1818 25.3069C21.7898 24.8906 21.5938 24.3904 21.5938 23.8063V12.124C21.5938 11.5399 21.7898 11.0397 22.1818 10.6234C22.5731 10.2078 23.0438 10 23.5938 10H39.5938C40.1438 10 40.6148 10.2078 41.0068 10.6234C41.3981 11.0397 41.5938 11.5399 41.5938 12.124V23.8063C41.5938 24.3904 41.3981 24.8906 41.0068 25.3069C40.6148 25.7226 40.1438 25.9304 39.5938 25.9304H23.5938ZM23.0938 24.3373H40.0938V11.593H23.0938V24.3373ZM21.5938 30C21.3104 30 21.0731 29.898 20.8817 29.6941C20.6897 29.4909 20.5938 29.4079 20.5938 29.107C20.5938 28.8061 20.6897 28.6924 20.8817 28.4892C21.0731 28.2853 21.3104 28.1833 21.5938 28.1833H41.5938C41.8771 28.1833 42.1144 28.2853 42.3058 28.4892C42.4978 28.6924 42.5938 28.8061 42.5938 29.107C42.5938 29.4079 42.4978 29.4909 42.3058 29.6941C42.1144 29.898 41.8771 30 41.5938 30H21.5938Z" fill="#AEAEAE"/>
<path d="M34.3293 21.7926C34.4752 21.9382 34.6496 22.0072 34.8526 21.9994C35.0549 21.991 35.229 21.914 35.3749 21.7683C35.5208 21.6226 35.5938 21.4485 35.5938 21.2459C35.5938 21.0439 35.5208 20.8701 35.3749 20.7244L33.8673 19.2436C34.0456 18.9685 34.1795 18.6772 34.269 18.3697C34.3578 18.0622 34.4023 17.7385 34.4023 17.3986C34.4023 16.4438 34.066 15.6385 33.3936 14.9827C32.7206 14.3276 31.922 14 30.998 14C30.074 14 29.2758 14.3276 28.6034 14.9827C27.9303 15.6385 27.5938 16.4438 27.5938 17.3986C27.5938 18.3535 27.9303 19.1588 28.6034 19.8146C29.2758 20.4697 30.074 20.7973 30.998 20.7973C31.3384 20.7973 31.6588 20.7607 31.959 20.6875C32.2586 20.615 32.5542 20.4898 32.846 20.3117L34.3293 21.7926ZM30.998 19.3407C30.4631 19.3407 30.0053 19.1504 29.6246 18.7697C29.2434 18.3897 29.0527 17.9327 29.0527 17.3986C29.0527 16.8646 29.2434 16.4072 29.6246 16.0266C30.0053 15.6466 30.4631 15.4566 30.998 15.4566C31.5167 15.4566 31.9706 15.6466 32.3597 16.0266C32.7488 16.4072 32.9433 16.8646 32.9433 17.3986C32.9433 17.9327 32.753 18.3897 32.3724 18.7697C31.9911 19.1504 31.533 19.3407 30.998 19.3407Z" fill="#D7D7D7"/>
</svg>
