<svg width="64" height="40" viewBox="0 0 64 40" fill="none" xmlns="http://www.w3.org/2000/svg">
<mask id="path-1-inside-1_1385_3133" fill="white">
<path d="M0.09375 0H63.0938V40H0.09375V0Z"/>
</mask>
<path d="M0.09375 0H63.0938V40H0.09375V0Z" fill="#409F47" fill-opacity="0.1"/>
<path d="M23.5938 25.9304C23.0438 25.9304 22.5731 25.7226 22.1818 25.3069C21.7898 24.8906 21.5938 24.3904 21.5938 23.8063V12.124C21.5938 11.5399 21.7898 11.0397 22.1818 10.6234C22.5731 10.2078 23.0438 10 23.5938 10H39.5938C40.1438 10 40.6148 10.2078 41.0068 10.6234C41.3981 11.0397 41.5938 11.5399 41.5938 12.124V23.8063C41.5938 24.3904 41.3981 24.8906 41.0068 25.3069C40.6148 25.7226 40.1438 25.9304 39.5938 25.9304H23.5938ZM23.0938 24.3373H40.0938V11.593H23.0938V24.3373ZM21.5938 30C21.3104 30 21.0731 29.898 20.8817 29.6941C20.6897 29.4909 20.5938 29.4079 20.5938 29.107C20.5938 28.8061 20.6897 28.6924 20.8817 28.4892C21.0731 28.2853 21.3104 28.1833 21.5938 28.1833H41.5938C41.8771 28.1833 42.1144 28.2853 42.3058 28.4892C42.4978 28.6924 42.5938 28.8061 42.5938 29.107C42.5938 29.4079 42.4978 29.4909 42.3058 29.6941C42.1144 29.898 41.8771 30 41.5938 30H21.5938Z" fill="#409F47"/>
<path d="M34.3293 21.7926C34.4752 21.9382 34.6496 22.0072 34.8526 21.9994C35.0549 21.991 35.229 21.914 35.3749 21.7683C35.5208 21.6226 35.5938 21.4485 35.5938 21.2459C35.5938 21.0439 35.5208 20.8701 35.3749 20.7244L33.8673 19.2436C34.0456 18.9685 34.1795 18.6772 34.269 18.3697C34.3578 18.0622 34.4023 17.7385 34.4023 17.3986C34.4023 16.4438 34.066 15.6385 33.3936 14.9827C32.7206 14.3276 31.922 14 30.998 14C30.074 14 29.2758 14.3276 28.6034 14.9827C27.9303 15.6385 27.5938 16.4438 27.5938 17.3986C27.5938 18.3535 27.9303 19.1588 28.6034 19.8146C29.2758 20.4697 30.074 20.7973 30.998 20.7973C31.3384 20.7973 31.6588 20.7607 31.959 20.6875C32.2586 20.615 32.5542 20.4898 32.846 20.3117L34.3293 21.7926Z" fill="#71B626"/>
<path d="M3.09375 0C3.09375 -1.65685 1.7506 -3 0.09375 -3C-1.5631 -3 -2.90625 -1.65685 -2.90625 0H3.09375ZM-2.90625 40C-2.90625 41.6569 -1.5631 43 0.09375 43C1.7506 43 3.09375 41.6569 3.09375 40H-2.90625ZM3.09375 40V0H-2.90625V40H3.09375Z" fill="#409F47" mask="url(#path-1-inside-1_1385_3133)"/>
</svg>
