<svg width="10" height="9" viewBox="0 0 10 9" fill="none" xmlns="http://www.w3.org/2000/svg">
<path d="M2.73722 0C2.8268 0 2.91271 0.0322553 2.97605 0.0896702C3.03939 0.147085 3.07497 0.224956 3.07497 0.306153V0.87866H6.70192V0.310089C6.70192 0.228893 6.73751 0.151021 6.80085 0.0936065C6.86419 0.0361916 6.9501 0.00393626 7.03967 0.00393626C7.12925 0.00393626 7.21516 0.0361916 7.2785 0.0936065C7.34184 0.151021 7.37742 0.228893 7.37742 0.310089V0.87866H8.685C8.94085 0.87866 9.18623 0.970758 9.36719 1.13471C9.54815 1.29865 9.64987 1.52103 9.65 1.75295V7.87295C9.64987 8.10486 9.54815 8.32724 9.36719 8.49119C9.18623 8.65514 8.94085 8.74723 8.685 8.74723H0.965C0.70915 8.74723 0.463771 8.65514 0.282812 8.49119C0.101854 8.32724 0.000127925 8.10486 0 7.87295L0 1.75295C0.000127925 1.52103 0.101854 1.29865 0.282812 1.13471C0.463771 0.970758 0.70915 0.87866 0.965 0.87866H2.39947V0.305716C2.3996 0.224595 2.43524 0.146836 2.49857 0.0895155C2.56189 0.0321952 2.64773 -8.27766e-08 2.73722 0V0ZM0.6755 3.38605V7.87295C0.6755 7.90741 0.682988 7.94153 0.697537 7.97337C0.712086 8.00521 0.73341 8.03414 0.760293 8.05851C0.787175 8.08287 0.819089 8.1022 0.854213 8.11539C0.889337 8.12858 0.926982 8.13537 0.965 8.13537H8.685C8.72302 8.13537 8.76066 8.12858 8.79579 8.11539C8.83091 8.1022 8.86283 8.08287 8.88971 8.05851C8.91659 8.03414 8.93791 8.00521 8.95246 7.97337C8.96701 7.94153 8.9745 7.90741 8.9745 7.87295V3.39218L0.6755 3.38605ZM3.21683 6.39379V7.12244H2.4125V6.39379H3.21683ZM5.22692 6.39379V7.12244H4.42308V6.39379H5.22692ZM7.2375 6.39379V7.12244H6.43317V6.39379H7.2375ZM3.21683 4.6544V5.38305H2.4125V4.6544H3.21683ZM5.22692 4.6544V5.38305H4.42308V4.6544H5.22692ZM7.2375 4.6544V5.38305H6.43317V4.6544H7.2375ZM2.39947 1.49053H0.965C0.926982 1.49053 0.889337 1.49732 0.854213 1.5105C0.819089 1.52369 0.787175 1.54302 0.760293 1.56739C0.73341 1.59176 0.712086 1.62069 0.697537 1.65252C0.682988 1.68436 0.6755 1.71848 0.6755 1.75295V2.77419L8.9745 2.78031V1.75295C8.9745 1.71848 8.96701 1.68436 8.95246 1.65252C8.93791 1.62069 8.91659 1.59176 8.88971 1.56739C8.86283 1.54302 8.83091 1.52369 8.79579 1.5105C8.76066 1.49732 8.72302 1.49053 8.685 1.49053H7.37742V1.89684C7.37742 1.97803 7.34184 2.05591 7.2785 2.11332C7.21516 2.17074 7.12925 2.20299 7.03967 2.20299C6.9501 2.20299 6.86419 2.17074 6.80085 2.11332C6.73751 2.05591 6.70192 1.97803 6.70192 1.89684V1.49053H3.07497V1.8929C3.07497 1.9741 3.03939 2.05197 2.97605 2.10938C2.91271 2.1668 2.8268 2.19905 2.73722 2.19905C2.64765 2.19905 2.56174 2.1668 2.4984 2.10938C2.43506 2.05197 2.39947 1.9741 2.39947 1.8929V1.49053Z" fill="#2D2F35"/>
</svg>
