<svg width="64" height="40" viewBox="0 0 64 40" fill="none" xmlns="http://www.w3.org/2000/svg">
<path fill-rule="evenodd" clip-rule="evenodd" d="M36.0222 10.8334H39.0166C40.2555 10.8334 41.2605 11.8471 41.2605 13.0977V16.1171C41.2605 17.3668 40.2555 18.3815 39.0166 18.3815H36.0222C34.7824 18.3815 33.7773 17.3668 33.7773 16.1171V13.0977C33.7773 11.8471 34.7824 10.8334 36.0222 10.8334Z" stroke="#D9D9D9" stroke-width="1.5" stroke-linecap="round" stroke-linejoin="round"/>
<path fill-rule="evenodd" clip-rule="evenodd" d="M25.1721 10.8334H28.1655C29.4054 10.8334 30.4104 11.8471 30.4104 13.0977V16.1171C30.4104 17.3668 29.4054 18.3815 28.1655 18.3815H25.1721C23.9323 18.3815 22.9272 17.3668 22.9272 16.1171V13.0977C22.9272 11.8471 23.9323 10.8334 25.1721 10.8334Z" stroke="#B1B1B1" stroke-width="1.5" stroke-linecap="round" stroke-linejoin="round"/>
<path fill-rule="evenodd" clip-rule="evenodd" d="M25.1721 21.6187H28.1655C29.4054 21.6187 30.4104 22.6324 30.4104 23.8839V26.9024C30.4104 28.153 29.4054 29.1667 28.1655 29.1667H25.1721C23.9323 29.1667 22.9272 28.153 22.9272 26.9024V23.8839C22.9272 22.6324 23.9323 21.6187 25.1721 21.6187Z" stroke="#D9D9D9" stroke-width="1.5" stroke-linecap="round" stroke-linejoin="round"/>
<path fill-rule="evenodd" clip-rule="evenodd" d="M36.0222 21.6187H39.0166C40.2555 21.6187 41.2605 22.6324 41.2605 23.8839V26.9024C41.2605 28.153 40.2555 29.1667 39.0166 29.1667H36.0222C34.7824 29.1667 33.7773 28.153 33.7773 26.9024V23.8839C33.7773 22.6324 34.7824 21.6187 36.0222 21.6187Z" stroke="#B1B1B1" stroke-width="1.5" stroke-linecap="round" stroke-linejoin="round"/>
</svg>
