<svg width="64" height="40" viewBox="0 0 64 40" fill="none" xmlns="http://www.w3.org/2000/svg">
<mask id="path-1-inside-1_1385_3176" fill="white">
<path d="M0.59375 0H63.5938V40H0.59375V0Z"/>
</mask>
<path d="M0.59375 0H63.5938V40H0.59375V0Z" fill="#409F47" fill-opacity="0.1"/>
<path d="M35.2291 10H38.5808C39.9688 10 41.0936 11.1394 41.0936 12.5456V15.9411C41.0936 17.3473 39.9688 18.4867 38.5808 18.4867H35.2291C33.8411 18.4867 32.7163 17.3473 32.7163 15.9411V12.5456C32.7163 11.1394 33.8411 10 35.2291 10Z" fill="#66B127"/>
<path d="M24.8722 10H28.2238C29.6119 10 30.7367 11.1394 30.7367 12.5456V15.9411C30.7367 17.3473 29.6119 18.4867 28.2238 18.4867H24.8722C23.4841 18.4867 22.3594 17.3473 22.3594 15.9411V12.5456C22.3594 11.1394 23.4841 10 24.8722 10Z" fill="#409F47"/>
<path d="M34.9635 20.479H38.3152C39.7032 20.479 40.828 21.6184 40.828 23.0246V26.4201C40.828 27.8254 39.7032 28.9657 38.3152 28.9657H34.9635C33.5754 28.9657 32.4507 27.8254 32.4507 26.4201V23.0246C32.4507 21.6184 33.5754 20.479 34.9635 20.479Z" fill="#409F47"/>
<path d="M24.6066 20.5132H27.9582C29.3463 20.5132 30.471 21.6526 30.471 23.0588V26.4543C30.471 27.8605 29.3463 28.9999 27.9582 28.9999H24.6066C23.2185 28.9999 22.0938 27.8605 22.0938 26.4543V23.0588C22.0938 21.6526 23.2185 20.5132 24.6066 20.5132Z" fill="#66B127"/>
<path d="M3.59375 0C3.59375 -1.65685 2.2506 -3 0.59375 -3C-1.0631 -3 -2.40625 -1.65685 -2.40625 0H3.59375ZM-2.40625 40C-2.40625 41.6569 -1.0631 43 0.59375 43C2.2506 43 3.59375 41.6569 3.59375 40H-2.40625ZM3.59375 40V0H-2.40625V40H3.59375Z" fill="#409F47" mask="url(#path-1-inside-1_1385_3176)"/>
</svg>
