<svg width="37" height="26" viewBox="0 0 37 26" fill="none" xmlns="http://www.w3.org/2000/svg">
<rect x="37" y="-0.00927734" width="26.0188" height="36.7324" rx="13.0094" transform="rotate(90 37 -0.00927734)" fill="#262626"/>
<path d="M13.66 13.0003C13.66 15.7475 15.8871 17.9745 18.6342 17.9745C21.3814 17.9745 23.6084 15.7475 23.6084 13.0003C23.6084 10.2531 21.3814 8.02612 18.6342 8.02612C15.8871 8.02612 13.66 10.2531 13.66 13.0003Z" stroke="#ACACAC" stroke-width="1.14789" stroke-linecap="round" stroke-linejoin="round"/>
<path d="M13.1706 18.4642L13.2701 18.3647M23.999 18.3647L24.0985 18.4642L23.999 18.3647ZM13.1706 7.5363L13.2701 7.63578L13.1706 7.5363ZM26.2259 13.0002L26.2871 13.0002L26.2259 13.0002ZM10.9819 13.0002L11.0432 13.0002L10.9819 13.0002ZM18.6345 5.40888L18.6345 5.34766L18.6345 5.40888ZM18.6345 20.6528L18.6345 20.5916L18.6345 20.6528ZM23.999 7.63578L24.0985 7.5363L23.999 7.63578Z" stroke="#ACACAC" stroke-width="1.53052" stroke-linecap="round" stroke-linejoin="round"/>
</svg>
