<svg width="64" height="40" viewBox="0 0 64 40" fill="none" xmlns="http://www.w3.org/2000/svg">
<path d="M26.3428 9.34668C24.8335 9.34668 23.5215 10.3801 23.1687 11.846L21.0456 20.6597C20.9116 21.2158 20.9056 21.7951 21.028 22.3539C21.1504 22.9127 21.398 23.4364 21.7522 23.8857C22.1064 24.335 22.5579 24.6982 23.0728 24.9478C23.5877 25.1975 24.1525 25.3271 24.7248 25.327H38.4656C39.0375 25.3268 39.602 25.1969 40.1166 24.9472C40.6311 24.6974 41.0823 24.3343 41.4362 23.8852C41.7901 23.4361 42.0376 22.9126 42.16 22.3541C42.2823 21.7956 42.2764 21.2166 42.1427 20.6608L40.0217 11.846C39.8501 11.1336 39.4435 10.4996 38.8676 10.0462C38.2916 9.59282 37.5797 9.34642 36.8466 9.34668H26.3417H26.3428ZM24.7227 12.2199C24.8103 11.8564 25.0177 11.533 25.3116 11.3017C25.6055 11.0703 25.9687 10.9446 26.3428 10.9447H36.8476C37.6172 10.9447 38.2865 11.4721 38.4666 12.2199L40.5898 21.0336C40.6672 21.3548 40.6706 21.6894 40.5999 22.0122C40.5292 22.3349 40.3862 22.6374 40.1816 22.8969C39.977 23.1564 39.7162 23.3661 39.4187 23.5102C39.1213 23.6543 38.795 23.7292 38.4645 23.729H24.7259C24.3954 23.729 24.0693 23.6541 23.772 23.5099C23.4747 23.3657 23.214 23.1559 23.0095 22.8965C22.805 22.637 22.6621 22.3346 22.5914 22.0119C22.5208 21.6892 22.5243 21.3548 22.6017 21.0336L24.7227 12.2199Z" fill="#AEAEAE"/>
<rect x="23.6035" y="28.5228" width="15.9803" height="2.13071" rx="1.06536" fill="#D7D7D7"/>
</svg>
