<svg width="64" height="40" viewBox="0 0 64 40" fill="none" xmlns="http://www.w3.org/2000/svg">
<mask id="path-1-inside-1_1376_3123" fill="white">
<path d="M0.09375 0H63.0938V40H0.09375V0Z"/>
</mask>
<path d="M0.09375 0H63.0938V40H0.09375V0Z" fill="#409F47" fill-opacity="0.1"/>
<path d="M26.3308 9.32275C24.8183 9.32275 23.5033 10.3584 23.1497 11.8276L21.0219 20.6609C20.8876 21.2183 20.8816 21.7988 21.0042 22.3589C21.1269 22.9189 21.3751 23.4438 21.73 23.8941C22.085 24.3444 22.5376 24.7084 23.0536 24.9586C23.5696 25.2088 24.1358 25.3387 24.7093 25.3386H38.4806C39.0538 25.3384 39.6196 25.2082 40.1353 24.9579C40.6509 24.7076 41.1031 24.3437 41.4579 23.8936C41.8126 23.4435 42.0606 22.9188 42.1832 22.3591C42.3058 21.7993 42.2999 21.2191 42.1659 20.662L40.0402 11.8276C39.8682 11.1136 39.4607 10.4782 38.8835 10.0238C38.3062 9.56944 37.5928 9.32249 36.858 9.32275H26.3298H26.3308ZM24.7072 12.2024C24.795 11.8381 25.0029 11.5139 25.2974 11.2821C25.5919 11.0502 25.9559 10.9242 26.3308 10.9243H36.8591C37.6303 10.9243 38.3011 11.4529 38.4817 12.2024L40.6095 21.0357C40.6871 21.3576 40.6906 21.6929 40.6197 22.0164C40.5489 22.3399 40.4055 22.643 40.2004 22.9031C39.9954 23.1632 39.734 23.3733 39.4359 23.5178C39.1378 23.6622 38.8108 23.7372 38.4795 23.737H24.7104C24.3792 23.737 24.0523 23.6619 23.7544 23.5174C23.4564 23.3729 23.1951 23.1627 22.9902 22.9027C22.7853 22.6426 22.642 22.3395 22.5712 22.0161C22.5004 21.6927 22.5039 21.3575 22.5814 21.0357L24.7072 12.2024Z" fill="#409F47"/>
<rect x="23.5859" y="28.542" width="16.0159" height="2.13545" rx="1.06772" fill="#71B626"/>
<path d="M28.4361 13.5936C27.5286 13.5936 26.7396 14.077 26.5274 14.7626L25.2507 18.8848C25.1702 19.1449 25.1665 19.4158 25.2401 19.6771C25.3137 19.9385 25.4626 20.1835 25.6756 20.3936C25.8886 20.6037 26.1601 20.7736 26.4698 20.8903C26.7794 21.0071 27.119 21.0677 27.4632 21.0677H35.726C36.0699 21.0676 36.4093 21.0068 36.7188 20.89C37.0282 20.7732 37.2995 20.6034 37.5123 20.3934C37.7251 20.1833 37.8739 19.9385 37.9475 19.6772C38.0211 19.416 38.0176 19.1453 37.9371 18.8853L36.6617 14.7626C36.5585 14.4294 36.314 14.1328 35.9677 13.9208C35.6213 13.7087 35.1933 13.5935 34.7524 13.5936H28.4361Z" fill="#71B626"/>
<path d="M3.09375 0C3.09375 -1.65685 1.7506 -3 0.09375 -3C-1.5631 -3 -2.90625 -1.65685 -2.90625 0H3.09375ZM-2.90625 40C-2.90625 41.6569 -1.5631 43 0.09375 43C1.7506 43 3.09375 41.6569 3.09375 40H-2.90625ZM3.09375 40V0H-2.90625V40H3.09375Z" fill="#409F47" mask="url(#path-1-inside-1_1376_3123)"/>
</svg>
