<svg width="26" height="29" viewBox="0 0 26 29" fill="none" xmlns="http://www.w3.org/2000/svg">
<path fill-rule="evenodd" clip-rule="evenodd" d="M4.53812 10.2612C4.93027 9.81209 5.16751 9.22635 5.16751 8.58569C5.16751 7.171 4.01072 6.02417 2.58376 6.02417C1.15679 6.02417 0 7.171 0 8.58569C0 9.22609 0.237051 9.81161 0.628906 10.2607V27.8126C0.63362 28.1223 0.761333 28.4176 0.98433 28.6346C1.20733 28.8515 1.50762 28.9725 1.82003 28.9713H3.35148C3.66312 28.9713 3.96226 28.8498 4.18429 28.633C4.40632 28.4162 4.53342 28.1215 4.53812 27.8126V10.2612Z" fill="url(#paint0_linear_2424_81055)"/>
<path fill-rule="evenodd" clip-rule="evenodd" d="M25.3663 10.2656C25.7607 9.81585 25.9995 9.22836 25.9995 8.58557C25.9995 7.17088 24.8428 6.02405 23.4158 6.02405C21.9888 6.02405 20.832 7.17088 20.832 8.58557C20.832 9.22628 21.0693 9.81206 21.4615 10.2612V27.7948C21.4615 27.9493 21.4922 28.1023 21.5518 28.245C21.6115 28.3878 21.6989 28.5175 21.8091 28.6267C21.9193 28.7359 22.0501 28.8226 22.194 28.8817C22.338 28.9408 22.4923 28.9713 22.6482 28.9713H24.1796C24.4912 28.9713 24.7904 28.8498 25.0124 28.633C25.2345 28.4162 25.3615 28.1215 25.3663 27.8126V10.2656Z" fill="url(#paint1_linear_2424_81055)"/>
<path fill-rule="evenodd" clip-rule="evenodd" d="M14.6573 16.9382C15.0587 16.4867 15.3023 15.894 15.3023 15.2449C15.3023 13.8302 14.1455 12.6833 12.7185 12.6833C11.2916 12.6833 10.1348 13.8302 10.1348 15.2449C10.1348 15.8767 10.3655 16.4551 10.748 16.9018V27.8126C10.7504 27.9671 10.7834 28.1196 10.8452 28.2615C10.907 28.4033 10.9964 28.5317 11.1082 28.6393C11.2201 28.7469 11.3522 28.8316 11.4971 28.8886C11.642 28.9455 11.7968 28.9736 11.9526 28.9713H13.4841C13.7964 28.9678 14.0948 28.8423 14.3145 28.622C14.5341 28.4018 14.6573 28.1046 14.6573 27.7948V16.9382Z" fill="url(#paint2_linear_2424_81055)"/>
<path fill-rule="evenodd" clip-rule="evenodd" d="M2.92136 4.20853C3.54971 4.20853 4.11429 3.93783 4.50293 3.50766L11.7793 9.06558L11.7804 9.06645C12.0597 9.28248 12.4034 9.39952 12.7568 9.39952C13.1069 9.39952 13.4475 9.28465 13.7254 9.07246L21.8302 3.50129C22.219 3.93516 22.786 4.20853 23.4175 4.20853C24.5897 4.20853 25.54 3.26642 25.54 2.10426C25.54 0.94211 24.5897 0 23.4175 0C22.2452 0 21.2949 0.94211 21.2949 2.10426C21.2949 2.37387 21.3461 2.63164 21.4393 2.86855L13.2964 8.46589L13.2877 8.47189L13.2794 8.47837C13.1305 8.59371 12.9466 8.65666 12.7568 8.65666C12.567 8.65666 12.3831 8.59371 12.2343 8.47837L12.2322 8.4768L4.89734 2.87415C4.99194 2.63571 5.04389 2.376 5.04389 2.10426C5.04389 0.94211 4.0936 0 2.92136 0C1.74912 0 0.798828 0.94211 0.798828 2.10426C0.798828 3.26642 1.74912 4.20853 2.92136 4.20853Z" fill="url(#paint3_linear_2424_81055)"/>
<defs>
<linearGradient id="paint0_linear_2424_81055" x1="2.58352" y1="9.69995" x2="2.58352" y2="28.9713" gradientUnits="userSpaceOnUse">
<stop stop-color="#66B127"/>
<stop offset="1" stop-color="#409F47"/>
</linearGradient>
<linearGradient id="paint1_linear_2424_81055" x1="23.4116" y1="9.69995" x2="23.4116" y2="28.9713" gradientUnits="userSpaceOnUse">
<stop stop-color="#66B127"/>
<stop offset="1" stop-color="#409F47"/>
</linearGradient>
<linearGradient id="paint2_linear_2424_81055" x1="12.7031" y1="16.6964" x2="12.7031" y2="28.9714" gradientUnits="userSpaceOnUse">
<stop stop-color="#66B127"/>
<stop offset="1" stop-color="#409F47"/>
</linearGradient>
<linearGradient id="paint3_linear_2424_81055" x1="23.4175" y1="0" x2="23.4175" y2="4.20853" gradientUnits="userSpaceOnUse">
<stop stop-color="#66B127"/>
<stop offset="1" stop-color="#409F47"/>
</linearGradient>
</defs>
</svg>
