<svg width="175" height="41" viewBox="0 0 175 41" fill="none" xmlns="http://www.w3.org/2000/svg">
<g clip-path="url(#clip0_71_561)">
<path d="M36.3281 27.7321C36.292 25.4996 36.768 23.2886 37.7193 21.2686C38.5695 19.4245 39.9389 17.8683 41.6599 16.7905C43.3809 15.7127 45.3789 15.1601 47.4091 15.2003C48.9253 15.1486 50.4341 15.4345 51.8263 16.0374C53.2184 16.6404 54.4592 17.5452 55.4587 18.6865C57.5158 21.0106 58.5425 24.0871 58.5389 27.9161V28.49C58.5766 30.733 58.1007 32.955 57.1477 34.9859C56.3045 36.8205 54.9419 38.3676 53.2284 39.4357C51.495 40.5032 49.4934 41.0552 47.4578 41.0272C45.9439 41.0772 44.4378 40.791 43.0478 40.1891C41.6578 39.5872 40.4185 38.6847 39.4191 37.5464C37.3584 35.2259 36.3281 32.1476 36.3281 28.3113V27.7321ZM39.0889 28.49C39.0889 31.4673 39.8594 33.9087 41.4003 35.8142C42.1335 36.7091 43.0563 37.4301 44.1019 37.9252C45.1476 38.4203 46.2901 38.6772 47.447 38.6772C48.604 38.6772 49.7465 38.4203 50.7921 37.9252C51.8378 37.4301 52.7605 36.7091 53.4937 35.8142C55.0383 33.9087 55.8088 31.3825 55.8052 28.2355V27.6942C55.8181 25.8977 55.4491 24.1189 54.7225 22.4758C54.1018 21.0109 53.0836 19.749 51.7831 18.8326C50.4924 17.9621 48.9657 17.5086 47.4091 17.5334C46.2497 17.5131 45.1018 17.7673 44.0594 18.2753C43.017 18.7834 42.1095 19.5308 41.4112 20.4566C39.863 22.3837 39.0889 24.91 39.0889 28.0352V28.49Z" fill="black"/>
<path d="M66.3723 15.6609L66.4643 19.9158C67.3141 18.4693 68.5174 17.2623 69.9613 16.408C71.3663 15.5988 72.963 15.1819 74.5843 15.2008C77.2476 15.2008 79.2325 15.9515 80.5389 17.4528C81.8453 18.954 82.5039 21.2078 82.5148 24.214V40.5405H79.781V24.1923C79.781 21.9675 79.2938 20.3164 78.3627 19.2229C77.4317 18.1294 75.9538 17.5989 73.913 17.5989C72.2664 17.5792 70.6663 18.1451 69.3983 19.1958C68.0366 20.3341 67.0265 21.836 66.486 23.5265V40.5405H63.7793V15.6393L66.3723 15.6609Z" fill="black"/>
<path d="M126.373 9.28906V15.6605H131.543V17.9125H126.395V34.5313C126.395 35.9171 126.644 36.9457 127.142 37.6169C127.64 38.2936 128.468 38.6346 129.638 38.6346C130.385 38.6043 131.13 38.5265 131.868 38.4018L131.982 40.6375C131.028 40.9256 130.033 41.0554 129.037 41.0219C127.153 41.0219 125.789 40.4805 124.923 39.3979C124.057 38.3152 123.634 36.6912 123.634 34.5259V17.9125H119.055V15.6605H123.634V9.28906H126.373Z" fill="black"/>
<path d="M104.27 24.3438H109.597C109.069 22.5228 107.984 20.9129 106.494 19.7404C105.004 18.5679 103.184 17.8916 101.29 17.8067C99.3958 17.7217 97.5226 18.2323 95.9336 19.2667C94.3446 20.3011 93.1196 21.8073 92.4307 23.5737C91.7418 25.3402 91.6236 27.2781 92.0927 29.1151C92.5619 30.9522 93.5948 32.5961 95.0463 33.816C96.4978 35.0358 98.295 35.7702 100.185 35.9161C102.076 36.0619 103.964 35.6119 105.586 34.6291C105.965 34.406 106.327 34.1544 106.669 33.8767L107.02 33.5735L107.085 33.514C107.406 33.2114 107.79 32.9841 108.21 32.8483C108.629 32.7125 109.073 32.6718 109.511 32.729C109.891 32.7713 110.258 32.8965 110.586 33.0957C110.913 33.2949 111.193 33.5633 111.405 33.8821C111.663 34.263 111.782 34.7208 111.742 35.179C111.703 35.6371 111.507 36.0679 111.189 36.3993C110.558 37.0876 109.864 37.7147 109.115 38.2723L108.726 38.5483C106.911 39.7798 104.834 40.5703 102.66 40.8567C100.486 41.1431 98.2746 40.9175 96.2031 40.1979C94.1316 39.4783 92.2569 38.2846 90.7285 36.7119C89.2001 35.1393 88.0604 33.2313 87.4001 31.1402C86.7399 29.049 86.5774 26.8324 86.9257 24.6673C87.274 22.5022 88.1234 20.4484 89.4062 18.6698C90.6889 16.8911 92.3696 15.4368 94.314 14.4229C96.2585 13.4089 98.413 12.8634 100.606 12.8297C102.468 12.8018 104.318 13.143 106.049 13.8336C107.779 14.5242 109.355 15.5506 110.687 16.8535C112.019 18.1564 113.079 19.7101 113.807 21.425C114.535 23.1398 114.917 24.9818 114.929 26.8448C114.934 27.7642 114.847 28.6818 114.669 29.5839H104.124C103.563 30.2575 102.806 30.7394 101.958 30.9626C101.11 31.1857 100.214 31.1391 99.3937 30.8292C98.5736 30.5192 97.8705 29.9613 97.3822 29.2332C96.8939 28.505 96.6447 27.6427 96.6692 26.7663C96.6938 25.8899 96.9909 25.043 97.5193 24.3433C98.0476 23.6436 98.7809 23.126 99.6171 22.8625C100.453 22.599 101.351 22.6027 102.185 22.873C103.019 23.1434 103.748 23.6669 104.27 24.3709V24.3438Z" fill="url(#paint0_linear_71_561)"/>
<path d="M3.66449 18.7518C5.38954 18.7518 6.78797 17.3534 6.78797 15.6284C6.78797 13.9033 5.38954 12.5049 3.66449 12.5049C1.93945 12.5049 0.541016 13.9033 0.541016 15.6284C0.541016 17.3534 1.93945 18.7518 3.66449 18.7518Z" fill="black"/>
<path d="M15.9145 26.872C17.6395 26.872 19.038 25.4735 19.038 23.7485C19.038 22.0234 17.6395 20.625 15.9145 20.625C14.1894 20.625 12.791 22.0234 12.791 23.7485C12.791 25.4735 14.1894 26.872 15.9145 26.872Z" fill="black"/>
<path d="M4.07079 10.291C5.4879 10.291 6.6367 9.1422 6.6367 7.72509C6.6367 6.30798 5.4879 5.15918 4.07079 5.15918C2.65368 5.15918 1.50488 6.30798 1.50488 7.72509C1.50488 9.1422 2.65368 10.291 4.07079 10.291Z" fill="black"/>
<path d="M28.8472 10.291C30.2643 10.291 31.4131 9.1422 31.4131 7.72509C31.4131 6.30798 30.2643 5.15918 28.8472 5.15918C27.43 5.15918 26.2812 6.30798 26.2812 7.72509C26.2812 9.1422 27.43 10.291 28.8472 10.291Z" fill="black"/>
<path d="M28.3009 7.04297L16.868 15.8558C16.6091 16.0582 16.2899 16.1681 15.9613 16.1681C15.6326 16.1681 15.3135 16.0582 15.0545 15.8558L3.61621 7.04297" stroke="black" stroke-miterlimit="10"/>
<path d="M1.29883 16.9873H6.02465V39.0736C6.01896 39.4503 5.86532 39.8096 5.5969 40.074C5.32849 40.3384 4.96686 40.4865 4.59012 40.4865H2.73877C2.36109 40.4879 1.99808 40.3404 1.7285 40.0759C1.45892 39.8114 1.30453 39.4512 1.29883 39.0736V16.9873Z" fill="black"/>
<path d="M28.8471 18.7518C30.5722 18.7518 31.9706 17.3534 31.9706 15.6284C31.9706 13.9033 30.5722 12.5049 28.8471 12.5049C27.1221 12.5049 25.7236 13.9033 25.7236 15.6284C25.7236 17.3534 27.1221 18.7518 28.8471 18.7518Z" fill="black"/>
<path d="M26.4814 16.9873H31.2073V39.0736C31.2016 39.4503 31.0479 39.8096 30.7795 40.074C30.5111 40.3384 30.1495 40.4865 29.7727 40.4865H27.9214C27.733 40.4865 27.5465 40.4494 27.3724 40.3773C27.1984 40.3052 27.0402 40.1995 26.907 40.0663C26.7738 39.9331 26.6681 39.775 26.5961 39.6009C26.524 39.4269 26.4869 39.2403 26.4869 39.052V16.9873H26.4814Z" fill="black"/>
<path d="M13.5332 25.5186H18.259V39.0518C18.259 39.4295 18.1101 39.7919 17.8446 40.0605C17.5791 40.3291 17.2184 40.4821 16.8407 40.4864H14.9894C14.801 40.4892 14.6139 40.4549 14.4387 40.3855C14.2636 40.316 14.1039 40.2128 13.9686 40.0816C13.8334 39.9503 13.7254 39.7938 13.6506 39.6208C13.5759 39.4479 13.536 39.2619 13.5332 39.0735V25.5402V25.5186Z" fill="black"/>
<path d="M151.697 31.4295L156.152 39.1705H162.025L153.196 24.8145C152.319 26.2183 151.453 27.7286 150.598 29.3454C150.89 29.9517 151.285 30.6987 151.697 31.4295Z" fill="black"/>
<path d="M148.049 17.4523L144.119 10.415H138.164L145.553 22.6221C146.566 21.3174 147.637 20.0237 148.758 18.7786C148.536 18.3347 148.292 17.8908 148.049 17.4523Z" fill="black"/>
<path d="M174.541 0.427734C174.541 0.427734 151.155 16.5053 144.605 40.6973H135.711C135.711 40.6973 151.155 9.31639 174.541 0.427734Z" fill="black"/>
</g>
<defs>
<linearGradient id="paint0_linear_71_561" x1="86.818" y1="26.861" x2="114.935" y2="26.861" gradientUnits="userSpaceOnUse">
<stop stop-color="#70B544"/>
<stop offset="0.24" stop-color="#6AB244"/>
<stop offset="0.56" stop-color="#59AB45"/>
<stop offset="0.92" stop-color="#3E9E47"/>
<stop offset="1" stop-color="#379B47"/>
</linearGradient>
<clipPath id="clip0_71_561">
<rect width="174" height="40.5728" fill="white" transform="translate(0.541016 0.427734)"/>
</clipPath>
</defs>
</svg>
