<svg width="64" height="40" viewBox="0 0 64 40" fill="none" xmlns="http://www.w3.org/2000/svg">
<mask id="path-1-inside-1_1232_5175" fill="white">
<path d="M0.09375 0H63.0938V40H0.09375V0Z"/>
</mask>
<path d="M0.09375 0H63.0938V40H0.09375V0Z" fill="#409F47" fill-opacity="0.14"/>
<path d="M40.0223 19.6538V24.7308H21.1652V11.1923H26.6652V9.5H21.1652C20.7484 9.5 20.3487 9.6783 20.054 9.99567C19.7593 10.313 19.5938 10.7435 19.5938 11.1923V24.7308C19.5938 25.1796 19.7593 25.61 20.054 25.9274C20.3487 26.2448 20.7484 26.4231 21.1652 26.4231H27.4509V29.8077H24.308V31.5H36.8795V29.8077H33.7366V26.4231H40.0223C40.4391 26.4231 40.8388 26.2448 41.1335 25.9274C41.4282 25.61 41.5938 25.1796 41.5938 24.7308V19.6538H40.0223ZM32.1652 29.8077H29.0223V26.4231H32.1652V29.8077Z" fill="#409F47"/>
<rect x="24.5938" y="12.5" width="15" height="10" rx="1.92" fill="#71B626"/>
<path d="M34.1201 22.5H34.1122C33.9421 22.4979 33.7771 22.4309 33.6418 22.309C33.5065 22.187 33.4082 22.0167 33.3614 21.8233L31.9459 15.9667H28.5938V14.1001H32.5411C32.7127 14.0999 32.8797 14.1659 33.0167 14.288C33.1537 14.4101 33.2534 14.5817 33.3006 14.7767L34.1485 18.286L36.524 9.1581C36.5753 8.96868 36.6757 8.80316 36.811 8.68504C36.9464 8.56693 37.1097 8.50222 37.278 8.5001C37.4443 8.49715 37.607 8.55765 37.742 8.67265C37.8769 8.78765 37.9769 8.95101 38.0272 9.1385L39.4253 14.1001H43.5938V15.9667H38.8569C38.6911 15.9668 38.5296 15.9051 38.3951 15.7905C38.2606 15.676 38.1601 15.5142 38.1077 15.3283L37.308 12.491L34.8748 21.8411C34.8252 22.0319 34.7251 22.1989 34.5892 22.3175C34.4534 22.4361 34.2889 22.5 34.1201 22.5Z" fill="#409F47"/>
<path d="M3.09375 0C3.09375 -1.65685 1.7506 -3 0.09375 -3C-1.5631 -3 -2.90625 -1.65685 -2.90625 0H3.09375ZM-2.90625 40C-2.90625 41.6569 -1.5631 43 0.09375 43C1.7506 43 3.09375 41.6569 3.09375 40H-2.90625ZM3.09375 40V0H-2.90625V40H3.09375Z" fill="#409F47" mask="url(#path-1-inside-1_1232_5175)"/>
</svg>
