<svg width="64" height="40" viewBox="0 0 64 40" fill="none" xmlns="http://www.w3.org/2000/svg">
<path d="M40.5938 19.6923V24.5385H22.5938V11.6154H27.8438V10H22.5938C22.1959 10 21.8144 10.1702 21.5331 10.4731C21.2518 10.7761 21.0938 11.187 21.0938 11.6154V24.5385C21.0938 24.9669 21.2518 25.3778 21.5331 25.6807C21.8144 25.9837 22.1959 26.1538 22.5938 26.1538H28.5938V29.3846H25.5938V31H37.5938V29.3846H34.5938V26.1538H40.5938C40.9916 26.1538 41.3731 25.9837 41.6544 25.6807C41.9357 25.3778 42.0938 24.9669 42.0938 24.5385V19.6923H40.5938ZM33.0938 29.3846H30.0938V26.1538H33.0938V29.3846Z" fill="#B1B1B1"/>
<path d="M33.6201 22H33.6122C33.4421 21.998 33.2771 21.9358 33.1418 21.8226C33.0065 21.7094 32.9082 21.5512 32.8614 21.3717L31.4459 15.9334H28.0938V14.2001H32.0411C32.2127 14.2 32.3797 14.2612 32.5167 14.3746C32.6537 14.488 32.7534 14.6473 32.8006 14.8284L33.6485 18.087L36.024 9.61109C36.0753 9.4352 36.1757 9.28151 36.311 9.17183C36.4464 9.06215 36.6097 9.00206 36.778 9.0001C36.9443 8.99735 37.107 9.05353 37.242 9.16032C37.3769 9.2671 37.4769 9.41879 37.5272 9.59289L38.9253 14.2001H43.0938V15.9334H38.3569C38.1911 15.9334 38.0296 15.8762 37.8951 15.7698C37.7606 15.6634 37.6601 15.5132 37.6077 15.3406L36.808 12.7059L34.3748 21.3881C34.3252 21.5653 34.2251 21.7204 34.0892 21.8305C33.9534 21.9406 33.7889 22 33.6201 22Z" fill="#D9D9D9"/>
</svg>
