<svg width="64" height="40" viewBox="0 0 64 40" fill="none" xmlns="http://www.w3.org/2000/svg">
<mask id="path-1-inside-1_1385_3156" fill="white">
<path d="M0.09375 -0.000488281H63.0938V39.9995H0.09375V-0.000488281Z"/>
</mask>
<path d="M0.09375 -0.000488281H63.0938V39.9995H0.09375V-0.000488281Z" fill="#409F47" fill-opacity="0.1"/>
<path d="M42.5933 24.2357C42.5999 24.0777 42.5585 23.9214 42.4747 23.788C42.3909 23.6545 42.2687 23.5503 42.1246 23.4894L41.0802 23.1774C41.0311 23.0326 40.973 22.8902 40.9061 22.75L41.3882 21.8477C41.4639 21.7009 41.4911 21.5333 41.4658 21.3696C41.4405 21.206 41.364 21.0549 41.2476 20.9386L40.3504 20.0431C40.2348 19.9262 40.0853 19.85 39.9239 19.8255C39.7624 19.8011 39.5974 19.8298 39.4532 19.9074L38.556 20.3891C38.4097 20.3182 38.26 20.2548 38.1075 20.1991L37.7928 19.195C37.74 19.0437 37.642 18.9127 37.5124 18.8204C37.3828 18.728 37.2281 18.6787 37.0697 18.6795H35.7842C35.6225 18.6806 35.4653 18.7338 35.3353 18.8314C35.2053 18.9289 35.1093 19.0658 35.0611 19.2222L34.7665 20.1923C34.6117 20.2479 34.4597 20.3113 34.3112 20.3823L33.4274 19.9074C33.2847 19.8306 33.1215 19.8016 32.9615 19.8248C32.8014 19.848 32.6528 19.922 32.537 20.0363L31.6197 20.925C31.5018 21.0418 31.4243 21.1941 31.399 21.3592C31.3736 21.5243 31.4017 21.6933 31.4791 21.8409L31.9478 22.7093C31.8763 22.854 31.8139 23.001 31.7603 23.1502L30.8163 23.4623C30.659 23.5094 30.5211 23.6069 30.4232 23.7403C30.3254 23.8737 30.273 24.0356 30.2739 24.2018V25.4704C30.2815 25.6313 30.3385 25.7858 30.437 25.9123C30.5354 26.0388 30.6703 26.1309 30.823 26.176L31.8072 26.4745C31.8607 26.6192 31.9232 26.7639 31.9946 26.9087L31.5126 27.8245C31.4344 27.9714 31.4052 28.1399 31.4293 28.305C31.4535 28.4701 31.5296 28.6228 31.6465 28.7404L32.5436 29.6359C32.6592 29.7528 32.8087 29.829 32.9702 29.8535C33.1317 29.8779 33.2966 29.8492 33.4408 29.7716L34.3581 29.2831C34.4964 29.3465 34.6371 29.4052 34.7799 29.4595L35.0745 30.4568C35.1231 30.6143 35.2201 30.752 35.3514 30.8496C35.4827 30.9473 35.6414 30.9998 35.8043 30.9995H37.0764C37.237 30.9969 37.3926 30.9431 37.5213 30.8456C37.6499 30.7482 37.7449 30.6121 37.7928 30.4568L38.0874 29.4595C38.228 29.412 38.3686 29.351 38.5025 29.2899L39.4264 29.7852C39.5699 29.8611 39.7335 29.8889 39.8935 29.8646C40.0536 29.8402 40.2019 29.7648 40.3169 29.6495L41.2141 28.754C41.332 28.6372 41.4094 28.4848 41.4348 28.3197C41.4601 28.1546 41.432 27.9857 41.3547 27.8381L40.8659 26.929C40.9284 26.7933 40.9842 26.6577 41.0333 26.522L42.0376 26.2235C42.1952 26.1795 42.3345 26.0851 42.4347 25.9542C42.5348 25.8233 42.5905 25.6631 42.5933 25.4976V24.2357Z" fill="#71B626"/>
<path d="M26.2276 25.8969C26.5169 25.8348 26.783 25.6931 26.9959 25.4877C27.2087 25.2823 27.3598 25.0215 27.432 24.7347C27.8058 24.6379 28.1657 24.5133 28.5325 24.3819V23.5518C28.5354 23.4331 28.5493 23.315 28.5741 23.1989C28.1624 23.365 27.7418 23.5081 27.3143 23.6279C27.165 23.3324 26.9263 23.0913 26.6323 22.9389C26.3382 22.7865 26.0036 22.7304 25.6759 22.7786C25.3482 22.8269 25.044 22.9769 24.8063 23.2075C24.5687 23.4382 24.4097 23.7377 24.3518 24.0637H24.0404C22.8294 22.6587 22.1272 20.8871 22.0469 19.0344C22.9771 17.7314 24.1527 16.6223 25.5078 15.7692C25.7094 15.9753 25.9647 16.1209 26.2449 16.1893C26.525 16.2578 26.8188 16.2465 27.0928 16.1566C27.9049 17.4881 28.9535 18.6603 30.1868 19.6155C30.232 19.5574 30.2806 19.502 30.3322 19.4495L30.9898 18.82C29.7819 17.9195 28.7596 16.7944 27.9788 15.5063C28.1357 15.2577 28.2196 14.9701 28.2211 14.6762V14.524C30.7518 13.674 33.4911 13.674 36.0218 14.524C35.8352 15.319 35.5685 16.0932 35.2258 16.8345H36.4371C36.6942 16.2241 36.9048 15.5951 37.067 14.9529C37.3646 15.0843 37.6484 15.2365 37.9391 15.3956C38.3357 16.2903 38.5701 17.2484 38.6313 18.225C38.8923 18.0791 39.1839 17.9961 39.4827 17.9829C39.6419 17.986 39.8 18.0093 39.9534 18.0521C39.8312 16.186 39.1711 14.3953 38.0528 12.896C36.9345 11.3967 35.4059 10.2531 33.6514 9.60321C31.897 8.95331 29.9918 8.82494 28.166 9.23361C26.3401 9.64227 24.6717 10.5705 23.3622 11.9062C22.0527 13.2419 21.1581 14.9279 20.7864 16.7606C20.4147 18.5934 20.5819 20.4945 21.2677 22.2344C21.9535 23.9742 23.1286 25.4785 24.6511 26.5654C26.1737 27.6524 27.9785 28.2755 29.8477 28.3597C29.6719 27.9152 29.6719 27.4205 29.8477 26.9761C28.5738 26.9008 27.3347 26.5314 26.2276 25.8969ZM30.3183 10.3733C31.4307 10.375 32.5315 10.5999 33.5552 11.0349C34.5789 11.4698 35.5048 12.1058 36.2779 12.9052C36.2779 13.0781 36.2779 13.258 36.2226 13.431C33.4424 12.5152 30.4376 12.542 27.6743 13.5071C27.4393 13.3062 27.1505 13.1787 26.8437 13.1404C26.6584 12.5686 26.5172 11.9835 26.4214 11.3902C27.6164 10.7347 28.9553 10.3853 30.3183 10.3733ZM25.4039 12.0059C25.4934 12.4543 25.6067 12.8977 25.7431 13.3341C25.5167 13.4758 25.3299 13.6726 25.2004 13.9062C25.0709 14.1397 25.0028 14.4022 25.0025 14.6693C25.0025 14.6693 25.0025 14.7384 25.0025 14.773C23.9566 15.4307 23.0064 16.2291 22.1784 17.1458C22.5662 15.0871 23.7184 13.2511 25.4039 12.0059Z" fill="#409F47"/>
<path d="M36.4839 22.4669C36.0015 22.472 35.5314 22.6199 35.1331 22.8919C34.7347 23.164 34.4258 23.548 34.2456 23.9955C34.0654 24.4429 34.0218 24.9338 34.1203 25.406C34.2189 25.8783 34.4552 26.3107 34.7994 26.6487C35.1437 26.9867 35.5803 27.2151 36.0543 27.3051C36.5282 27.395 37.0182 27.3425 37.4623 27.1542C37.9064 26.9658 38.2848 26.65 38.5495 26.2468C38.8143 25.8435 38.9536 25.3708 38.9499 24.8884C38.9398 24.2416 38.6754 23.6248 38.2139 23.1716C37.7523 22.7183 37.1308 22.4652 36.4839 22.4669ZM36.4839 26.3311C36.2043 26.3261 35.9323 26.2389 35.702 26.0802C35.4717 25.9216 35.2932 25.6987 35.1887 25.4392C35.0843 25.1798 35.0586 24.8954 35.1149 24.6214C35.1711 24.3475 35.3068 24.0961 35.505 23.8988C35.7032 23.7015 35.9551 23.5669 36.2293 23.5119C36.5035 23.4569 36.7878 23.4838 37.0468 23.5894C37.3058 23.6949 37.5279 23.8744 37.6855 24.1054C37.8431 24.3364 37.9292 24.6088 37.933 24.8884C37.9338 25.0786 37.8969 25.2672 37.8243 25.443C37.7517 25.6188 37.6449 25.7785 37.5101 25.9127C37.3752 26.0469 37.2151 26.153 37.039 26.2249C36.8628 26.2967 36.6741 26.3328 36.4839 26.3311Z" fill="#DFF0CD"/>
<path d="M3.09375 -0.000488281C3.09375 -1.65734 1.7506 -3.00049 0.09375 -3.00049C-1.5631 -3.00049 -2.90625 -1.65734 -2.90625 -0.000488281H3.09375ZM-2.90625 39.9995C-2.90625 41.6564 -1.5631 42.9995 0.09375 42.9995C1.7506 42.9995 3.09375 41.6564 3.09375 39.9995H-2.90625ZM3.09375 39.9995V-0.000488281H-2.90625V39.9995H3.09375Z" fill="#409F47" mask="url(#path-1-inside-1_1385_3156)"/>
</svg>
