<svg width="64" height="40" viewBox="0 0 64 40" fill="none" xmlns="http://www.w3.org/2000/svg">
<path d="M26.228 25.897C26.5172 25.8349 26.7833 25.6932 26.9962 25.4878C27.209 25.2824 27.3601 25.0216 27.4323 24.7348C27.8061 24.638 28.166 24.5134 28.5328 24.382V23.5519C28.5357 23.4333 28.5496 23.3151 28.5744 23.1991C28.1627 23.3651 27.7421 23.5083 27.3146 23.628C27.1653 23.3325 26.9267 23.0915 26.6326 22.9391C26.3386 22.7867 26.004 22.7306 25.6763 22.7788C25.3486 22.827 25.0443 22.9771 24.8067 23.2077C24.5691 23.4383 24.4101 23.7378 24.3522 24.0638H24.0408C22.8298 22.6588 22.1276 20.8873 22.0474 19.0347C22.9775 17.7317 24.1531 16.6226 25.5081 15.7695C25.7097 15.9756 25.9651 16.1212 26.2452 16.1897C26.5254 16.2581 26.8191 16.2468 27.0932 16.1569C27.9053 17.4884 28.9538 18.6606 30.1871 19.6157C30.2323 19.5576 30.2808 19.5022 30.3324 19.4497L30.99 18.8202C29.7822 17.9198 28.7598 16.7947 27.9791 15.5066C28.136 15.258 28.2199 14.9704 28.2214 14.6765V14.5243C30.752 13.6744 33.4913 13.6744 36.0219 14.5243C35.8353 15.3194 35.5686 16.0935 35.226 16.8348H36.4372C36.6943 16.2244 36.9049 15.5954 37.0671 14.9532C37.3647 15.0847 37.6485 15.2369 37.9392 15.396C38.3358 16.2906 38.5702 17.2486 38.6314 18.2253C38.8924 18.0793 39.1839 17.9964 39.4827 17.9832C39.6419 17.9863 39.8 18.0096 39.9534 18.0523C39.8312 16.1864 39.1711 14.3956 38.0529 12.8964C36.9346 11.3972 35.406 10.2536 33.6516 9.60368C31.8972 8.9538 29.9921 8.82544 28.1663 9.23409C26.3405 9.64274 24.6721 10.5709 23.3626 11.9066C22.0531 13.2422 21.1585 14.9282 20.7869 16.7609C20.4152 18.5936 20.5823 20.4947 21.2681 22.2345C21.9539 23.9743 23.129 25.4785 24.6515 26.5655C26.174 27.6524 27.9788 28.2755 29.8479 28.3597C29.6721 27.9152 29.6721 27.4206 29.8479 26.9761C28.5741 26.9008 27.335 26.5314 26.228 25.897ZM30.3186 10.3737C31.431 10.3754 32.5317 10.6004 33.5554 11.0353C34.5791 11.4702 35.5049 12.1062 36.278 12.9056C36.278 13.0785 36.278 13.2584 36.2227 13.4313C33.4426 12.5156 30.4379 12.5424 27.6746 13.5074C27.4396 13.3065 27.1508 13.179 26.844 13.1408C26.6587 12.569 26.5176 11.9839 26.4218 11.3906C27.6167 10.7351 28.9555 10.3858 30.3186 10.3737ZM25.4043 12.0063C25.4938 12.4547 25.607 12.8981 25.7435 13.3345C25.517 13.4762 25.3303 13.673 25.2008 13.9065C25.0712 14.14 25.0031 14.4026 25.0029 14.6696C25.0029 14.6696 25.0029 14.7388 25.0029 14.7734C23.957 15.431 23.0068 16.2294 22.1789 17.1461C22.5666 15.0875 23.7188 13.2515 25.4043 12.0063Z" fill="#B1B1B1"/>
<path d="M36.4838 22.4671C36.0015 22.4721 35.5314 22.62 35.133 22.892C34.7347 23.1641 34.4258 23.5481 34.2456 23.9956C34.0654 24.443 34.0218 24.9339 34.1203 25.4061C34.2189 25.8783 34.4552 26.3107 34.7994 26.6487C35.1436 26.9867 35.5803 27.2151 36.0542 27.3051C36.5282 27.395 37.0181 27.3425 37.4622 27.1542C37.9064 26.9658 38.2847 26.6501 38.5494 26.2468C38.8142 25.8435 38.9535 25.3709 38.9497 24.8885C38.9397 24.2417 38.6753 23.6249 38.2138 23.1717C37.7522 22.7185 37.1307 22.4653 36.4838 22.4671ZM36.4838 26.3312C36.2042 26.3261 35.9323 26.2389 35.702 26.0803C35.4716 25.9217 35.2931 25.6987 35.1887 25.4393C35.0843 25.1799 35.0586 24.8954 35.1149 24.6215C35.1711 24.3475 35.3068 24.0962 35.505 23.8989C35.7031 23.7016 35.955 23.567 36.2292 23.512C36.5034 23.457 36.7877 23.4839 37.0467 23.5894C37.3057 23.695 37.5278 23.8745 37.6854 24.1055C37.843 24.3365 37.9291 24.6088 37.9329 24.8885C37.9337 25.0787 37.8968 25.2672 37.8242 25.443C37.7516 25.6189 37.6448 25.7785 37.51 25.9128C37.3752 26.047 37.215 26.1531 37.0389 26.2249C36.8627 26.2967 36.6741 26.3328 36.4838 26.3312Z" fill="#B1B1B1"/>
<path d="M42.5935 24.2358C42.6001 24.0778 42.5587 23.9215 42.4749 23.7881C42.3911 23.6547 42.2689 23.5505 42.1248 23.4896L41.0804 23.1775C41.0313 23.0328 40.9733 22.8903 40.9063 22.7501L41.3884 21.8478C41.4641 21.701 41.4913 21.5335 41.466 21.3698C41.4407 21.2062 41.3642 21.0551 41.2478 20.9388L40.3506 20.0433C40.2351 19.9264 40.0856 19.8502 39.9241 19.8257C39.7626 19.8013 39.5977 19.83 39.4535 19.9076L38.5563 20.3893C38.41 20.3184 38.2603 20.255 38.1077 20.1993L37.7931 19.1953C37.7403 19.0439 37.6423 18.913 37.5127 18.8206C37.3832 18.7282 37.2284 18.679 37.07 18.6797H35.7845C35.6228 18.6809 35.4656 18.7341 35.3357 18.8316C35.2057 18.9291 35.1097 19.066 35.0615 19.2224L34.7669 20.1925C34.6121 20.2481 34.4601 20.3115 34.3116 20.3825L33.4278 19.9076C33.2851 19.8308 33.1219 19.8018 32.9619 19.825C32.8019 19.8482 32.6532 19.9222 32.5374 20.0365L31.6202 20.9252C31.5022 21.042 31.4248 21.1943 31.3995 21.3594C31.3741 21.5245 31.4022 21.6935 31.4796 21.841L31.9482 22.7094C31.8768 22.8541 31.8143 23.0011 31.7607 23.1504L30.8167 23.4624C30.6595 23.5095 30.5215 23.607 30.4237 23.7404C30.3259 23.8738 30.2735 24.0357 30.2744 24.2019V25.4705C30.282 25.6314 30.339 25.7858 30.4374 25.9123C30.5359 26.0388 30.6708 26.131 30.8234 26.176L31.8076 26.4745C31.8612 26.6193 31.9237 26.764 31.9951 26.9087L31.513 27.8246C31.4349 27.9714 31.4057 28.14 31.4298 28.305C31.4539 28.4701 31.5301 28.6228 31.6469 28.7404L32.5441 29.6359C32.6596 29.7528 32.8091 29.829 32.9706 29.8534C33.1321 29.8778 33.297 29.8492 33.4412 29.7716L34.3585 29.2831C34.4968 29.3464 34.6374 29.4052 34.7803 29.4595L35.0748 30.4568C35.1234 30.6143 35.2205 30.7519 35.3518 30.8496C35.4831 30.9472 35.6417 30.9997 35.8046 30.9995H37.0767C37.2373 30.9969 37.3929 30.943 37.5216 30.8456C37.6502 30.7481 37.7452 30.6121 37.7931 30.4568L38.0877 29.4595C38.2283 29.412 38.3689 29.351 38.5028 29.2899L39.4267 29.7851C39.5701 29.8611 39.7337 29.8889 39.8938 29.8645C40.0538 29.8401 40.2021 29.7648 40.3171 29.6495L41.2143 28.754C41.3322 28.6372 41.4096 28.4848 41.435 28.3197C41.4603 28.1547 41.4322 27.9857 41.3549 27.8381L40.8662 26.9291C40.9286 26.7934 40.9844 26.6577 41.0335 26.522L42.0378 26.2235C42.1954 26.1796 42.3347 26.0851 42.4348 25.9543C42.535 25.8234 42.5907 25.6632 42.5935 25.4976V24.2358ZM41.5223 25.2534L40.1832 25.6469L40.1029 25.9318C40.0287 26.1884 39.9277 26.4363 39.8016 26.6713L39.661 26.9291L40.3305 28.1434L39.7548 28.7133L38.5362 28.0349L38.2885 28.1705C38.05 28.3009 37.7987 28.4055 37.5387 28.4826L37.2575 28.564L36.8625 29.9208H36.0389L35.6439 28.5979L35.3627 28.5165C35.1008 28.4416 34.8472 28.3393 34.6062 28.2112L34.3585 28.0756L33.1466 28.754L32.5709 28.1773L33.2404 26.9426L33.0931 26.6848C32.9562 26.4423 32.8462 26.1852 32.765 25.9182L32.678 25.6401L31.3724 25.2466V24.4258L32.6713 24.0323L32.7516 23.7541C32.832 23.4847 32.9421 23.2253 33.0797 22.9808L33.227 22.7162L32.5575 21.5426L33.1399 20.9727L34.325 21.6104L34.5794 21.4679C34.8277 21.3284 35.0904 21.217 35.3627 21.1355L35.6372 21.0541L36.0323 19.7584H36.8558L37.2441 21.0473L37.5186 21.1287C37.7883 21.2084 38.0487 21.3176 38.2952 21.4544L38.5496 21.5968L39.7548 20.9523L40.3305 21.529L39.661 22.7298L39.8016 22.9875C39.9342 23.2305 40.0397 23.4876 40.1163 23.7541L40.1966 24.0391L41.4888 24.4258L41.5223 25.2534Z" fill="#D7D7D7"/>
</svg>
