<svg width="64" height="40" viewBox="0 0 64 40" fill="none" xmlns="http://www.w3.org/2000/svg">
<path d="M35.0938 29C36.1983 29 37.0938 28.1046 37.0938 27C37.0938 25.8954 36.1983 25 35.0938 25C33.9892 25 33.0938 25.8954 33.0938 27C33.0938 28.1046 33.9892 29 35.0938 29Z" fill="#D7D7D7"/>
<path d="M34.0938 14C35.1983 14 36.0938 13.1046 36.0938 12C36.0938 10.8954 35.1983 10 34.0938 10C32.9892 10 32.0938 10.8954 32.0938 12C32.0938 13.1046 32.9892 14 34.0938 14Z" fill="#D7D7D7"/>
<path d="M22.0938 22C23.1983 22 24.0938 21.1046 24.0938 20C24.0938 18.8954 23.1983 18 22.0938 18C20.9892 18 20.0938 18.8954 20.0938 20C20.0938 21.1046 20.9892 22 22.0938 22Z" fill="#D7D7D7"/>
<path d="M39.9516 16.8575C39.2567 16.8595 38.5821 17.0921 38.0335 17.5186C37.485 17.9452 37.0934 18.5417 36.9202 19.2147H33.5541C33.4428 18.7716 33.2354 18.3584 32.9467 18.0043C32.658 17.6502 32.2949 17.364 31.8832 17.1658C31.4715 16.9677 31.0213 16.8625 30.5645 16.8576C30.1076 16.8528 29.6553 16.9485 29.2396 17.138L26.7433 14.0186C27.1539 13.4793 27.3773 12.8208 27.3797 12.143C27.3797 11.5214 27.1954 10.9137 26.85 10.3968C26.5047 9.87998 26.0138 9.47713 25.4395 9.23925C24.8652 9.00136 24.2332 8.93912 23.6236 9.06039C23.0139 9.18167 22.4539 9.48101 22.0143 9.92056C21.5748 10.3601 21.2754 10.9201 21.1541 11.5298C21.0329 12.1395 21.0951 12.7714 21.333 13.3458C21.5709 13.9201 21.9737 14.4109 22.4906 14.7563C23.0074 15.1016 23.6151 15.286 24.2367 15.286C24.6798 15.2849 25.1175 15.1893 25.5206 15.0055L28.0162 18.1249C27.6036 18.6631 27.3801 19.3223 27.3801 20.0004C27.3801 20.6786 27.6036 21.3378 28.0162 21.876L25.5206 24.9954C25.1175 24.8116 24.6798 24.716 24.2367 24.7149C23.6151 24.7149 23.0074 24.8993 22.4906 25.2446C21.9737 25.59 21.5709 26.0808 21.333 26.6551C21.0951 27.2294 21.0329 27.8614 21.1541 28.4711C21.2754 29.0808 21.5748 29.6408 22.0143 30.0803C22.4539 30.5199 23.0139 30.8192 23.6236 30.9405C24.2332 31.0618 24.8652 30.9995 25.4395 30.7616C26.0138 30.5238 26.5047 30.1209 26.85 29.6041C27.1954 29.0872 27.3797 28.4795 27.3797 27.8579C27.3774 27.1801 27.1539 26.5216 26.7433 25.9823L29.2388 22.8629C29.6546 23.0525 30.107 23.1483 30.5639 23.1436C31.0209 23.1388 31.4712 23.0337 31.8829 22.8355C32.2947 22.6373 32.6579 22.351 32.9467 21.9969C33.2354 21.6427 33.4428 21.2294 33.5541 20.7862H36.9202C37.0682 21.3539 37.3724 21.8688 37.7982 22.2724C38.2241 22.6759 38.7546 22.952 39.3295 23.0692C39.9044 23.1864 40.5006 23.1401 41.0505 22.9354C41.6004 22.7308 42.0819 22.3761 42.4403 21.9116C42.7987 21.4471 43.0197 20.8914 43.0781 20.3076C43.1366 19.7238 43.0302 19.1353 42.771 18.609C42.5118 18.0826 42.1103 17.6395 41.6119 17.3299C41.1135 17.0202 40.5383 16.8566 39.9516 16.8575ZM22.6652 12.143C22.6652 11.8322 22.7574 11.5283 22.9301 11.2699C23.1028 11.0115 23.3482 10.8101 23.6353 10.6911C23.9225 10.5722 24.2385 10.5411 24.5433 10.6017C24.8481 10.6623 25.1282 10.812 25.3479 11.0318C25.5677 11.2516 25.7174 11.5316 25.778 11.8364C25.8387 12.1412 25.8075 12.4572 25.6886 12.7444C25.5697 13.0315 25.3682 13.277 25.1098 13.4496C24.8514 13.6223 24.5475 13.7145 24.2367 13.7145C23.8201 13.7141 23.4206 13.5484 23.126 13.2537C22.8314 12.9591 22.6657 12.5596 22.6652 12.143ZM24.2367 29.4294C23.9259 29.4294 23.6221 29.3372 23.3637 29.1646C23.1052 28.9919 22.9038 28.7464 22.7849 28.4593C22.6659 28.1721 22.6348 27.8562 22.6954 27.5513C22.7561 27.2465 22.9057 26.9665 23.1255 26.7467C23.3453 26.5269 23.6253 26.3772 23.9301 26.3166C24.235 26.256 24.551 26.2871 24.8381 26.406C25.1253 26.525 25.3707 26.7264 25.5434 26.9848C25.716 27.2433 25.8082 27.5471 25.8082 27.8579C25.8078 28.2746 25.6421 28.674 25.3475 28.9687C25.0529 29.2633 24.6534 29.429 24.2367 29.4294ZM30.5227 21.5719C30.2119 21.5719 29.908 21.4798 29.6496 21.3071C29.3912 21.1344 29.1898 20.889 29.0708 20.6018C28.9519 20.3147 28.9208 19.9987 28.9814 19.6939C29.042 19.389 29.1917 19.109 29.4115 18.8892C29.6312 18.6695 29.9113 18.5198 30.2161 18.4592C30.5209 18.3985 30.8369 18.4296 31.1241 18.5486C31.4112 18.6675 31.6566 18.8689 31.8293 19.1274C32.002 19.3858 32.0942 19.6896 32.0942 20.0004C32.0938 20.4171 31.9281 20.8166 31.6334 21.1112C31.3388 21.4058 30.9393 21.5715 30.5227 21.5719ZM39.9516 21.5719C39.6408 21.5719 39.337 21.4798 39.0785 21.3071C38.8201 21.1344 38.6187 20.889 38.4997 20.6018C38.3808 20.3147 38.3497 19.9987 38.4103 19.6939C38.471 19.389 38.6206 19.109 38.8404 18.8892C39.0602 18.6695 39.3402 18.5198 39.645 18.4592C39.9499 18.3985 40.2658 18.4296 40.553 18.5486C40.8401 18.6675 41.0856 18.8689 41.2583 19.1274C41.4309 19.3858 41.5231 19.6896 41.5231 20.0004C41.5227 20.4171 41.357 20.8166 41.0624 21.1112C40.7677 21.4058 40.3683 21.5715 39.9516 21.5719Z" fill="#AEAEAE"/>
</svg>
