<svg width="64" height="40" viewBox="0 0 64 40" fill="none" xmlns="http://www.w3.org/2000/svg">
<mask id="path-1-inside-1_1376_3111" fill="white">
<path d="M0.09375 0H63.0938V40H0.09375V0Z"/>
</mask>
<path d="M0.09375 0H63.0938V40H0.09375V0Z" fill="#409F47" fill-opacity="0.1"/>
<path d="M36.1129 30.3929C37.3606 30.3929 38.3722 29.3814 38.3722 28.1336C38.3722 26.8858 37.3606 25.8743 36.1129 25.8743C34.8651 25.8743 33.8535 26.8858 33.8535 28.1336C33.8535 29.3814 34.8651 30.3929 36.1129 30.3929Z" fill="#66B127"/>
<path d="M36.1129 14.1256C37.3606 14.1256 38.3722 13.1141 38.3722 11.8663C38.3722 10.6185 37.3606 9.60693 36.1129 9.60693C34.8651 9.60693 33.8535 10.6185 33.8535 11.8663C33.8535 13.1141 34.8651 14.1256 36.1129 14.1256Z" fill="#66B127"/>
<path d="M21.6529 22.2592C22.9007 22.2592 23.9122 21.2476 23.9122 19.9998C23.9122 18.752 22.9007 17.7405 21.6529 17.7405C20.4051 17.7405 19.3936 18.752 19.3936 19.9998C19.3936 21.2476 20.4051 22.2592 21.6529 22.2592Z" fill="#66B127"/>
<path d="M40.9541 17.6113C40.3261 17.6132 39.7165 17.8233 39.2207 18.2088C38.7249 18.5944 38.3711 19.1334 38.2145 19.7416H35.1725C35.0719 19.3412 34.8845 18.9677 34.6235 18.6477C34.3626 18.3277 34.0345 18.0691 33.6624 17.89C33.2904 17.7109 32.8835 17.6158 32.4707 17.6115C32.0578 17.6071 31.649 17.6936 31.2733 17.8648L29.0173 15.0457C29.3884 14.5584 29.5903 13.9632 29.5925 13.3507C29.5925 12.7889 29.4259 12.2397 29.1138 11.7726C28.8016 11.3055 28.358 10.9415 27.839 10.7265C27.32 10.5115 26.7489 10.4552 26.1979 10.5648C25.6469 10.6744 25.1408 10.945 24.7436 11.3422C24.3463 11.7394 24.0758 12.2456 23.9662 12.7965C23.8566 13.3475 23.9129 13.9186 24.1278 14.4377C24.3428 14.9567 24.7069 15.4003 25.174 15.7124C25.6411 16.0245 26.1903 16.1911 26.752 16.1911C27.1524 16.1902 27.548 16.1037 27.9123 15.9376L30.1676 18.7567C29.7948 19.2431 29.5928 19.8389 29.5928 20.4517C29.5928 21.0646 29.7948 21.6603 30.1676 22.1468L27.9123 24.9659C27.548 24.7997 27.1524 24.7133 26.752 24.7124C26.1903 24.7124 25.6411 24.879 25.174 25.1911C24.7069 25.5032 24.3428 25.9468 24.1278 26.4658C23.9129 26.9848 23.8566 27.5559 23.9662 28.1069C24.0758 28.6579 24.3463 29.164 24.7436 29.5613C25.1408 29.9585 25.6469 30.229 26.1979 30.3386C26.7489 30.4482 27.32 30.392 27.839 30.177C28.358 29.962 28.8016 29.598 29.1138 29.1308C29.4259 28.6637 29.5925 28.1146 29.5925 27.5528C29.5904 26.9402 29.3884 26.3451 29.0173 25.8578L31.2726 23.0387C31.6483 23.21 32.0572 23.2966 32.4701 23.2923C32.8831 23.288 33.2901 23.193 33.6622 23.0139C34.0343 22.8348 34.3625 22.576 34.6235 22.256C34.8845 21.9359 35.0719 21.5624 35.1725 21.1618H38.2145C38.3483 21.6749 38.6232 22.1403 39.0081 22.505C39.3929 22.8697 39.8724 23.1191 40.3919 23.2251C40.9115 23.331 41.4503 23.2891 41.9472 23.1042C42.4442 22.9193 42.8793 22.5987 43.2032 22.1789C43.5271 21.7591 43.7268 21.2569 43.7797 20.7293C43.8325 20.2017 43.7364 19.6699 43.5021 19.1942C43.2679 18.7185 42.905 18.318 42.4546 18.0382C42.0042 17.7584 41.4843 17.6105 40.9541 17.6113Z" fill="#409F47"/>
<path d="M3.09375 0C3.09375 -1.65685 1.7506 -3 0.09375 -3C-1.5631 -3 -2.90625 -1.65685 -2.90625 0H3.09375ZM-2.90625 40C-2.90625 41.6569 -1.5631 43 0.09375 43C1.7506 43 3.09375 41.6569 3.09375 40H-2.90625ZM3.09375 40V0H-2.90625V40H3.09375Z" fill="#409F47" mask="url(#path-1-inside-1_1376_3111)"/>
</svg>
