<svg width="48" height="35" viewBox="0 0 48 35" fill="none" xmlns="http://www.w3.org/2000/svg">
<rect x="48" y="0.686523" width="34" height="48" rx="17" transform="rotate(90 48 0.686523)" fill="#F7F7F7"/>
<path d="M14.0301 17.1065C14.3901 22.2565 18.7601 26.4465 23.9901 26.6765C27.6801 26.8365 30.9801 25.1165 32.9601 22.4065C33.7801 21.2965 33.3401 20.5565 31.9701 20.8065C31.3001 20.9265 30.6101 20.9765 29.8901 20.9465C25.0001 20.7465 21.0001 16.6565 20.9801 11.8265C20.9701 10.5265 21.2401 9.29655 21.7301 8.17655C22.2701 6.93655 21.6201 6.34655 20.3701 6.87655C16.4101 8.54655 13.7001 12.5365 14.0301 17.1065Z" stroke="#313131" stroke-width="1.5" stroke-linecap="round" stroke-linejoin="round"/>
</svg>
