<svg width="64" height="40" viewBox="0 0 64 40" fill="none" xmlns="http://www.w3.org/2000/svg">
<mask id="path-1-inside-1_1385_3146" fill="white">
<path d="M0.09375 0H63.0938V40H0.09375V0Z"/>
</mask>
<path d="M0.09375 0H63.0938V40H0.09375V0Z" fill="#409F47" fill-opacity="0.1"/>
<path fill-rule="evenodd" clip-rule="evenodd" d="M31.3373 9.03581C28.8735 9.22839 26.3348 10.5364 24.6053 12.5044C24.1166 13.0604 23.4686 14.0006 23.206 14.5348C23.0722 14.8067 23.0733 14.8141 23.255 14.8864C23.5922 15.0204 24.4613 15.2605 24.487 15.2267C24.501 15.2084 24.6441 14.9828 24.8052 14.7253C27.3836 10.6042 32.6827 9.30612 36.7477 11.7998L37.252 12.1092L36.7318 12.5978L36.2114 13.0863L37.2279 13.1416C37.787 13.1721 38.4457 13.2057 38.6917 13.2162L39.1391 13.2354L39.2247 11.7455C39.2717 10.926 39.3008 10.2414 39.2893 10.224C39.2779 10.2066 39.0618 10.3853 38.8091 10.6211L38.3497 11.0496L37.8089 10.6849C37.051 10.1736 36.5693 9.93129 35.6372 9.59261C34.2735 9.09694 32.8735 8.91568 31.3373 9.03581ZM40.5045 14.7232L39.9992 15.226L40.32 15.9425C40.8548 17.1371 41.0609 18.0663 41.1094 19.502C41.1542 20.8296 41.0602 21.5915 40.711 22.7282C40.0469 24.8899 38.6111 26.7278 36.6496 27.9269C36.348 28.1113 36.0487 28.2621 35.9846 28.2621C35.9037 28.2621 35.8271 28.049 35.7349 27.5673C35.6045 26.8869 35.5287 26.6868 35.4659 26.8574C35.4486 26.9042 35.1099 27.4597 34.7132 28.0919C34.1694 28.9581 34.0146 29.2658 34.0846 29.3407C34.1357 29.3953 34.6858 29.7911 35.3073 30.2201L36.4372 31L36.3828 30.7166C36.2207 29.8701 36.223 29.8207 36.4259 29.7665C36.7146 29.6896 38.0165 28.8871 38.5697 28.4452C39.7572 27.4965 41.0348 25.838 41.6216 24.4832C42.0121 23.5817 42.3303 22.5067 42.4803 21.5817C42.6819 20.3387 42.6077 18.3989 42.3142 17.2368C42.0269 16.0999 41.2434 14.2076 41.064 14.2174C41.0342 14.2191 40.7825 14.4466 40.5045 14.7232ZM21.8952 17.2955L20.5938 17.9794L21.2493 18.1917L21.9048 18.4041L21.9085 19.7786C21.9112 20.7506 21.9536 21.3519 22.0531 21.8318C22.5342 24.151 23.4542 25.9462 24.9807 27.5442C26.7763 29.4239 29.0803 30.4911 31.7576 30.6833C32.6301 30.7459 32.5931 30.7973 32.3811 29.8143C32.261 29.2574 32.2355 29.2136 32.0049 29.1653C31.8688 29.1369 31.6181 29.1135 31.4476 29.1135C30.6992 29.1135 29.2523 28.6838 28.2803 28.1728C25.8283 26.8839 24.0337 24.4287 23.5228 21.664C23.3663 20.8175 23.2892 19.7392 23.3533 19.2922L23.4081 18.9101L23.9876 19.1164C24.3064 19.2298 24.5801 19.3227 24.5959 19.3227C24.6117 19.3227 24.3216 18.7105 23.9513 17.9621C23.5809 17.2139 23.2596 16.6038 23.2373 16.6066C23.2149 16.6093 22.611 16.9193 21.8952 17.2955Z" fill="#409F47"/>
<path d="M33.317 12.5739C33.0678 12.4662 32.7514 12.4662 32.1186 12.4662C31.4857 12.4662 31.1693 12.4662 30.9201 12.5739C30.7552 12.6451 30.6054 12.7495 30.4793 12.8812C30.3531 13.0128 30.253 13.1692 30.1848 13.3412C30.1223 13.4992 30.0972 13.6841 30.0877 13.9527C30.0834 14.1468 30.032 14.3366 29.9382 14.5043C29.8443 14.672 29.7112 14.812 29.5513 14.9113C29.3889 15.0063 29.2061 15.0566 29.02 15.0576C28.8338 15.0586 28.6505 15.0102 28.4873 14.917C28.2591 14.7909 28.0941 14.7214 27.9305 14.6987C27.5735 14.6498 27.2126 14.7507 26.9269 14.9793C26.7137 15.1515 26.5548 15.437 26.2384 16.0088C25.922 16.5806 25.7631 16.8661 25.7285 17.146C25.7051 17.3305 25.7169 17.5181 25.763 17.6979C25.8091 17.8777 25.8888 18.0462 25.9974 18.1939C26.0978 18.3299 26.2384 18.444 26.4564 18.5871C26.7775 18.7976 26.9839 19.1561 26.9839 19.5514C26.9839 19.9468 26.7775 20.3053 26.4564 20.515C26.2384 20.6589 26.0972 20.7729 25.9974 20.909C25.8888 21.0566 25.8091 21.2252 25.763 21.405C25.7169 21.5848 25.7051 21.7723 25.7285 21.9569C25.7638 22.236 25.922 22.5223 26.2377 23.0941C26.5548 23.6658 26.713 23.9514 26.9269 24.1235C27.0684 24.2368 27.23 24.3199 27.4023 24.3681C27.5746 24.4162 27.7543 24.4285 27.9312 24.4041C28.0941 24.3814 28.2591 24.312 28.4873 24.1859C28.6505 24.0927 28.8338 24.0443 29.02 24.0452C29.2061 24.0462 29.3889 24.0966 29.5513 24.1916C29.8792 24.3899 30.0741 24.7548 30.0877 25.1502C30.0972 25.4194 30.1216 25.6036 30.1848 25.7616C30.253 25.9337 30.3531 26.09 30.4793 26.2217C30.6054 26.3533 30.7552 26.4578 30.9201 26.529C31.1693 26.6367 31.4857 26.6367 32.1186 26.6367C32.7514 26.6367 33.0678 26.6367 33.317 26.529C33.4819 26.4578 33.6317 26.3533 33.7579 26.2217C33.884 26.09 33.9841 25.9337 34.0524 25.7616C34.1148 25.6036 34.14 25.4194 34.1495 25.1502C34.163 24.7548 34.3579 24.3892 34.6859 24.1916C34.8482 24.0966 35.031 24.0462 35.2172 24.0452C35.4033 24.0443 35.5866 24.0927 35.7499 24.1859C35.978 24.312 36.143 24.3814 36.306 24.4041C36.4828 24.4285 36.6625 24.4162 36.8348 24.3681C37.0072 24.3199 37.1687 24.2368 37.3102 24.1235C37.5241 23.9521 37.6823 23.6658 37.9987 23.0941C38.3151 22.5223 38.474 22.2367 38.5087 21.9569C38.532 21.7723 38.5203 21.5848 38.4741 21.405C38.428 21.2252 38.3483 21.0566 38.2398 20.909C38.1393 20.7729 37.9987 20.6589 37.7808 20.5157C37.6217 20.4148 37.4898 20.2734 37.3975 20.1047C37.3052 19.9361 37.2556 19.7457 37.2532 19.5514C37.2532 19.1561 37.4596 18.7976 37.7808 18.5878C37.9987 18.444 38.14 18.3299 38.2398 18.1939C38.3483 18.0462 38.428 17.8777 38.4741 17.6979C38.5203 17.5181 38.532 17.3305 38.5087 17.146C38.4733 16.8668 38.3151 16.5806 37.9994 16.0088C37.6823 15.437 37.5241 15.1515 37.3102 14.9793C37.1687 14.866 37.0072 14.7829 36.8348 14.7348C36.6625 14.6866 36.4828 14.6744 36.306 14.6987C36.143 14.7214 35.978 14.7909 35.7492 14.917C35.586 15.0101 35.4028 15.0584 35.2168 15.0574C35.0308 15.0564 34.8481 15.0062 34.6859 14.9113C34.5259 14.812 34.3928 14.672 34.299 14.5043C34.2051 14.3366 34.1537 14.1468 34.1495 13.9527C34.14 13.6834 34.1155 13.4992 34.0524 13.3412C33.9841 13.1692 33.884 13.0128 33.7579 12.8812C33.6317 12.7495 33.4819 12.6451 33.317 12.5739Z" fill="#71B626"/>
<path opacity="0.7" d="M34.736 19.4273C34.736 17.742 33.506 16.6522 32.1466 16.6522C30.7871 16.6522 29.5571 17.742 29.5571 19.4273C29.5571 20.5509 30.4181 21.8843 32.1466 23.4208C33.875 21.8843 34.736 20.5509 34.736 19.4273ZM32.1466 20.0365C31.968 20.0284 31.7994 19.9486 31.6758 19.8137C31.5522 19.6787 31.4832 19.4991 31.4832 19.3123C31.4832 19.1254 31.5522 18.9458 31.6758 18.8109C31.7994 18.6759 31.968 18.5961 32.1466 18.588C32.3251 18.5961 32.4937 18.6759 32.6173 18.8109C32.7409 18.9458 32.8099 19.1254 32.8099 19.3123C32.8099 19.4991 32.7409 19.6787 32.6173 19.8137C32.4937 19.9486 32.3251 20.0284 32.1466 20.0365Z" fill="white"/>
<path d="M3.09375 0C3.09375 -1.65685 1.7506 -3 0.09375 -3C-1.5631 -3 -2.90625 -1.65685 -2.90625 0H3.09375ZM-2.90625 40C-2.90625 41.6569 -1.5631 43 0.09375 43C1.7506 43 3.09375 41.6569 3.09375 40H-2.90625ZM3.09375 40V0H-2.90625V40H3.09375Z" fill="#409F47" mask="url(#path-1-inside-1_1385_3146)"/>
</svg>
