<svg width="64" height="40" viewBox="0 0 64 40" fill="none" xmlns="http://www.w3.org/2000/svg">
<path fill-rule="evenodd" clip-rule="evenodd" d="M31.3286 9.14434C28.7832 9.33502 26.1603 10.6301 24.3735 12.5786C23.8686 13.1291 23.1991 14.06 22.9278 14.5889C22.7896 14.8581 22.7907 14.8654 22.9785 14.937C23.3269 15.0697 24.2248 15.3074 24.2513 15.2739C24.2657 15.2559 24.4136 15.0325 24.5801 14.7775C27.2439 10.6972 32.7186 9.41198 36.9183 11.881L37.4394 12.1873L36.9019 12.6711L36.3643 13.1547L37.4145 13.2095C37.9921 13.2397 38.6726 13.2729 38.9268 13.2834L39.389 13.3023L39.4774 11.8272C39.5259 11.0158 39.556 10.338 39.5442 10.3208C39.5324 10.3036 39.3091 10.4805 39.048 10.7139L38.5734 11.1382L38.0147 10.7771C37.2317 10.2709 36.734 10.031 35.771 9.69563C34.3621 9.20487 32.9158 9.0254 31.3286 9.14434ZM40.7997 14.7754L40.2776 15.2732L40.609 15.9826C41.1615 17.1655 41.3745 18.0855 41.4246 19.5069C41.4709 20.8214 41.3737 21.5758 41.0129 22.7012C40.3269 24.8415 38.8435 26.6612 36.817 27.8484C36.5054 28.0309 36.1961 28.1803 36.1299 28.1803C36.0464 28.1803 35.9672 27.9692 35.8719 27.4924C35.7372 26.8187 35.6589 26.6206 35.594 26.7894C35.5761 26.8358 35.2262 27.3858 34.8164 28.0117C34.2546 28.8694 34.0947 29.174 34.167 29.2481C34.2197 29.3023 34.7881 29.6942 35.4302 30.1188L36.5975 30.891L36.5414 30.6104C36.3739 29.7724 36.3762 29.7234 36.5859 29.6698C36.8841 29.5936 38.2292 28.7991 38.8007 28.3615C40.0275 27.4222 41.3475 25.7802 41.9538 24.4387C42.3573 23.5462 42.6859 22.4818 42.841 21.566C43.0492 20.3354 42.9726 18.4147 42.6693 17.2642C42.3725 16.1385 41.563 14.2649 41.3777 14.2747C41.3469 14.2763 41.0868 14.5016 40.7997 14.7754ZM21.5736 17.3223L20.229 17.9994L20.9062 18.2096L21.5835 18.4199L21.5873 19.7808C21.5901 20.7432 21.6339 21.3385 21.7368 21.8136C22.2337 24.1099 23.1843 25.8873 24.7613 27.4694C26.6165 29.3306 28.9968 30.3872 31.7628 30.5775C32.6642 30.6394 32.6261 30.6903 32.407 29.7171C32.2829 29.1657 32.2566 29.1223 32.0183 29.0745C31.8778 29.0463 31.6188 29.0233 31.4426 29.0233C30.6693 29.0233 29.1745 28.5978 28.1703 28.0919C25.6371 26.8157 23.783 24.3848 23.2551 21.6475C23.0934 20.8093 23.0138 19.7418 23.08 19.2992L23.1366 18.9208L23.7354 19.1251C24.0647 19.2374 24.3475 19.3294 24.3638 19.3294C24.3801 19.3294 24.0804 18.7232 23.6978 17.9823C23.3152 17.2414 22.9832 16.6374 22.9601 16.6401C22.937 16.6428 22.3131 16.9498 21.5736 17.3223Z" fill="#AEAEAE"/>
<path opacity="0.7" d="M34.8402 19.4329C34.8402 17.7643 33.5695 16.6853 32.165 16.6853C30.7605 16.6853 29.4897 17.7643 29.4897 19.4329C29.4897 20.5454 30.3793 21.8656 32.165 23.3869C33.9507 21.8656 34.8402 20.5454 34.8402 19.4329ZM32.165 20.0361C31.9805 20.0281 31.8063 19.9491 31.6786 19.8155C31.5509 19.6819 31.4796 19.504 31.4796 19.319C31.4796 19.134 31.5509 18.9562 31.6786 18.8226C31.8063 18.689 31.9805 18.6099 32.165 18.602C32.3494 18.6099 32.5237 18.689 32.6514 18.8226C32.7791 18.9562 32.8503 19.134 32.8503 19.319C32.8503 19.504 32.7791 19.6819 32.6514 19.8155C32.5237 19.9491 32.3494 20.0281 32.165 20.0361Z" fill="#D7D7D7"/>
<path d="M33.2847 13.1444C33.0458 13.0454 32.7424 13.0454 32.1357 13.0454C31.5289 13.0454 31.2255 13.0454 30.9866 13.1444C30.8285 13.2098 30.6849 13.3058 30.5639 13.4267C30.4429 13.5477 30.3469 13.6914 30.2815 13.8494C30.2216 13.9946 30.1975 14.1645 30.1884 14.4113C30.1844 14.5897 30.135 14.7641 30.0451 14.9182C29.9551 15.0723 29.8274 15.2009 29.6741 15.2921C29.5184 15.3794 29.3431 15.4257 29.1647 15.4266C28.9862 15.4275 28.8105 15.383 28.6539 15.2974C28.4352 15.1815 28.277 15.1177 28.1201 15.0968C27.7778 15.0518 27.4317 15.1446 27.1578 15.3546C26.9534 15.5129 26.8011 15.7752 26.4977 16.3006C26.1943 16.826 26.0419 17.0884 26.0087 17.3455C25.9864 17.5151 25.9976 17.6874 26.0419 17.8526C26.0861 18.0178 26.1625 18.1727 26.2666 18.3084C26.3629 18.4334 26.4977 18.5382 26.7067 18.6697C27.0146 18.8631 27.2125 19.1925 27.2125 19.5558C27.2125 19.9191 27.0146 20.2485 26.7067 20.4412C26.4977 20.5734 26.3623 20.6782 26.2666 20.8032C26.1625 20.9389 26.0861 21.0938 26.0419 21.259C25.9976 21.4242 25.9864 21.5965 26.0087 21.7661C26.0426 22.0226 26.1943 22.2856 26.497 22.811C26.8011 23.3364 26.9528 23.5988 27.1578 23.757C27.2935 23.8611 27.4484 23.9374 27.6136 23.9817C27.7788 24.0259 27.9511 24.0372 28.1207 24.0148C28.277 23.9939 28.4352 23.9301 28.6539 23.8143C28.8105 23.7286 28.9862 23.6841 29.1647 23.685C29.3431 23.6859 29.5184 23.7322 29.6741 23.8195C29.9885 24.0018 30.1754 24.337 30.1884 24.7003C30.1975 24.9477 30.221 25.117 30.2815 25.2622C30.3469 25.4203 30.4429 25.5639 30.5639 25.6849C30.6849 25.8059 30.8285 25.9018 30.9866 25.9672C31.2255 26.0662 31.5289 26.0662 32.1357 26.0662C32.7424 26.0662 33.0458 26.0662 33.2847 25.9672C33.4428 25.9018 33.5865 25.8059 33.7074 25.6849C33.8284 25.5639 33.9244 25.4203 33.9898 25.2622C34.0497 25.117 34.0738 24.9477 34.0829 24.7003C34.0959 24.337 34.2828 24.0011 34.5972 23.8195C34.7529 23.7322 34.9282 23.6859 35.1066 23.685C35.2851 23.6841 35.4609 23.7286 35.6174 23.8143C35.8362 23.9301 35.9944 23.9939 36.1506 24.0148C36.3202 24.0372 36.4925 24.0259 36.6577 23.9817C36.8229 23.9374 36.9778 23.8611 37.1135 23.757C37.3186 23.5994 37.4703 23.3364 37.7736 22.811C38.077 22.2856 38.2294 22.0232 38.2626 21.7661C38.2849 21.5965 38.2737 21.4242 38.2295 21.259C38.1852 21.0938 38.1089 20.9389 38.0048 20.8032C37.9084 20.6782 37.7736 20.5734 37.5647 20.4419C37.4121 20.3492 37.2857 20.2192 37.1972 20.0642C37.1087 19.9092 37.0611 19.7343 37.0588 19.5558C37.0588 19.1925 37.2567 18.8631 37.5647 18.6704C37.7736 18.5382 37.9091 18.4334 38.0048 18.3084C38.1089 18.1727 38.1852 18.0178 38.2295 17.8526C38.2737 17.6874 38.2849 17.5151 38.2626 17.3455C38.2287 17.089 38.077 16.826 37.7743 16.3006C37.4703 15.7752 37.3186 15.5129 37.1135 15.3546C36.9778 15.2505 36.8229 15.1742 36.6577 15.13C36.4925 15.0857 36.3202 15.0745 36.1506 15.0968C35.9944 15.1177 35.8362 15.1815 35.6168 15.2974C35.4603 15.3829 35.2847 15.4273 35.1063 15.4264C34.928 15.4255 34.7528 15.3793 34.5972 15.2921C34.4439 15.2009 34.3162 15.0723 34.2263 14.9182C34.1363 14.7641 34.087 14.5897 34.0829 14.4113C34.0738 14.1639 34.0504 13.9946 33.9898 13.8494C33.9244 13.6914 33.8284 13.5477 33.7074 13.4267C33.5865 13.3058 33.4428 13.2098 33.2847 13.1444Z" stroke="#D9D9D9" stroke-width="1.5"/>
</svg>
