<svg width="42" height="40" viewBox="0 0 42 40" fill="none" xmlns="http://www.w3.org/2000/svg">
<rect width="42" height="39.8462" rx="8.61539" fill="#FFEDEA"/>
<path d="M30.9953 23.6222V26.1463C30.0866 26.1463 29.178 24.8842 29.178 22.7809V20.2568C25.5434 24.4636 24.6347 26.1463 24.6347 27.829C24.6346 28.6547 24.897 29.4623 25.3892 30.151C25.8813 30.8396 26.5815 31.3789 27.4025 31.7017C27.6801 30.5586 28.2947 29.5093 29.178 28.6703C30.0612 29.5093 30.6758 30.5586 30.9535 31.7017C31.7744 31.3789 32.4746 30.8396 32.9668 30.151C33.459 29.4623 33.7214 28.6547 33.7212 27.829C33.7212 26.1463 32.699 24.8245 30.9953 23.6222ZM21.9087 30.3624H9.57701V26.2415H21.9087V24.9709H10.0962C9.61441 24.9713 9.15245 25.1488 8.81174 25.4642C8.47103 25.7797 8.27941 26.2075 8.27893 26.6536V30.019C8.27941 30.4651 8.47103 30.8929 8.81174 31.2083C9.15245 31.5238 9.61441 31.7012 10.0962 31.7017H21.9087V30.3624Z" fill="#FF7661"/>
<path d="M31.9039 16.557H12.8222C12.3404 16.5575 11.8784 16.7349 11.5377 17.0504C11.197 17.3658 11.0054 17.7936 11.0049 18.2397V21.6051C11.0054 22.0512 11.197 22.479 11.5377 22.7944C11.8784 23.1099 12.3404 23.2873 12.8222 23.2878H21.9087V22.1202H12.3957V17.7246H31.9039L31.9048 19.9224H33.7212V18.2397C33.7208 17.7936 33.5291 17.3658 33.1884 17.0504C32.8477 16.7349 32.3858 16.5575 31.9039 16.557ZM29.178 14.8743H10.0962C9.61441 14.8739 9.15245 14.6965 8.81174 14.381C8.47103 14.0655 8.27941 13.6378 8.27893 13.1916V9.82625C8.27941 9.38011 8.47103 8.95237 8.81174 8.6369C9.15245 8.32143 9.61441 8.144 10.0962 8.14355H29.178C29.6598 8.144 30.1218 8.32143 30.4625 8.6369C30.8032 8.95237 30.9948 9.38011 30.9953 9.82625V13.1916C30.9948 13.6378 30.8032 14.0655 30.4625 14.381C30.1218 14.6965 29.6598 14.8739 29.178 14.8743ZM9.72536 9.48284V13.6037H29.6045V9.48284H9.72536Z" fill="#FF7661"/>
</svg>
