<svg width="39" height="38" viewBox="0 0 39 38" fill="none" xmlns="http://www.w3.org/2000/svg">
<rect width="38.9231" height="37.9231" rx="8.61539" fill="#E9FFEB"/>
<g clip-path="url(#clip0_3617_10697)">
<path d="M29.9999 6.92383H8.84605C8.33602 6.92383 7.84688 7.14332 7.48623 7.53402C7.12558 7.92472 6.92297 8.45463 6.92297 9.00716V25.6738L8.84605 23.5905V9.00716H29.9999V23.5905H10.7691L6.92297 25.6738H18.4614V29.8405H14.3644V31.9238H24.3143V29.8405H20.3845V25.6738H29.9999C30.5099 25.6738 30.9991 25.4543 31.3597 25.0636C31.7204 24.6729 31.923 24.143 31.923 23.5905V9.00716C31.923 8.45463 31.7204 7.92472 31.3597 7.53402C30.9991 7.14332 30.5099 6.92383 29.9999 6.92383Z" fill="#3D9E47"/>
</g>
<defs>
<clipPath id="clip0_3617_10697">
<rect width="26" height="25" fill="white" transform="translate(6.46155 6.46191)"/>
</clipPath>
</defs>
</svg>
