<svg width="46" height="43" viewBox="0 0 46 43" fill="none" xmlns="http://www.w3.org/2000/svg">
<rect width="45.4462" height="42.8118" rx="8.99831" fill="#FFF3E9"/>
<path fill-rule="evenodd" clip-rule="evenodd" d="M8.93574 15.7866L12.0514 11.623H33.1011L36.4717 15.8487L11.1709 15.8176L8.93574 15.7866ZM6.77283 16.4221C6.77895 16.2588 6.83296 16.093 6.94447 15.944L11.0435 10.4663C11.2052 10.2502 11.4592 10.123 11.729 10.123H33.411C33.6716 10.123 33.9179 10.2417 34.0804 10.4454L38.4793 15.9602C38.6661 16.1943 38.7053 16.4751 38.6354 16.7229C38.6755 16.822 38.6975 16.9302 38.6975 17.0435V31.8325C38.6975 32.3053 38.3141 32.6887 37.8413 32.6887H7.605C7.13212 32.6887 6.74878 32.3053 6.74878 31.8325V16.6245C6.74878 16.5547 6.75711 16.487 6.77283 16.4221ZM8.24878 19.5747V29.071H37.1975V19.5747H8.24878ZM8.24878 18.5247H37.1975V17.6784L11.1596 17.3176L8.24878 17.314V18.5247ZM8.24878 31.1887V30.1248H37.1975V31.1887H8.24878ZM10.5948 22.0315V26.6176H14.5852V22.0315H13.9472V23.0099C13.9472 23.317 13.6982 23.566 13.3911 23.566H11.7274C11.4203 23.566 11.1713 23.317 11.1713 23.0099V22.0315H10.5948ZM9.69497 21.6878C9.69497 21.3807 9.94396 21.1317 10.2511 21.1317H11.515C11.8221 21.1317 12.0711 21.3807 12.0711 21.6878V22.6662H13.0474V21.6878C13.0474 21.3807 13.2964 21.1317 13.6035 21.1317H14.9289C15.2361 21.1317 15.4851 21.3807 15.4851 21.6878V26.9613C15.4851 27.2684 15.2361 27.5174 14.9289 27.5174H10.2511C9.94396 27.5174 9.69497 27.2684 9.69497 26.9613V21.6878ZM17.3303 26.6176V22.0315H17.9068V23.0099C17.9068 23.317 18.1558 23.566 18.463 23.566H20.1266C20.4338 23.566 20.6828 23.317 20.6828 23.0099V22.0315H21.3208V26.6176H17.3303ZM16.9867 21.1317C16.6795 21.1317 16.4305 21.3807 16.4305 21.6878V26.9613C16.4305 27.2684 16.6795 27.5174 16.9867 27.5174H21.6645C21.9716 27.5174 22.2206 27.2684 22.2206 26.9613V21.6878C22.2206 21.3807 21.9716 21.1317 21.6645 21.1317H20.3391C20.0319 21.1317 19.783 21.3807 19.783 21.6878V22.6662H18.8067V21.6878C18.8067 21.3807 18.5577 21.1317 18.2505 21.1317H16.9867ZM24.3427 22.0315V26.6176H28.3331V22.0315H27.6951V23.0099C27.6951 23.317 27.4461 23.566 27.139 23.566H25.4753C25.1682 23.566 24.9192 23.317 24.9192 23.0099V22.0315H24.3427ZM23.4429 21.6878C23.4429 21.3807 23.6919 21.1317 23.999 21.1317H25.2629C25.57 21.1317 25.819 21.3807 25.819 21.6878V22.6662H26.7953V21.6878C26.7953 21.3807 27.0443 21.1317 27.3514 21.1317H28.6768C28.984 21.1317 29.2329 21.3807 29.2329 21.6878V26.9613C29.2329 27.2684 28.984 27.5174 28.6768 27.5174H23.999C23.6919 27.5174 23.4429 27.2684 23.4429 26.9613V21.6878ZM31.1096 26.6176V22.0315H31.686V23.0099C31.686 23.317 31.935 23.566 32.2422 23.566H33.9058C34.213 23.566 34.462 23.317 34.462 23.0099V22.0315H35.1V26.6176H31.1096ZM30.7659 21.1317C30.4587 21.1317 30.2097 21.3807 30.2097 21.6878V26.9613C30.2097 27.2684 30.4587 27.5174 30.7659 27.5174H35.4437C35.7508 27.5174 35.9998 27.2684 35.9998 26.9613V21.6878C35.9998 21.3807 35.7508 21.1317 35.4437 21.1317H34.1183C33.8111 21.1317 33.5622 21.3807 33.5622 21.6878V22.6662H32.5859V21.6878C32.5859 21.3807 32.3369 21.1317 32.0297 21.1317H30.7659Z" fill="#FF9131"/>
</svg>
